<svg width="962" height="787" viewBox="0 0 962 787" fill="none" xmlns="http://www.w3.org/2000/svg">
<g clip-path="url(#clip0_110_29)">
<path d="M790.519 64.6479H145.296C121.679 64.6479 102.532 83.805 102.532 107.437V516.186C102.532 539.817 121.679 558.974 145.296 558.974H790.519C814.139 558.974 833.284 539.817 833.284 516.186V107.437C833.284 83.805 814.139 64.6479 790.519 64.6479Z" fill="url(#paint0_linear_110_29)"/>
<path d="M151.434 64.6479H785.421C798.254 64.6479 810.563 69.7483 819.631 78.8262C828.71 87.904 833.807 100.217 833.807 113.055H103.056C103.056 100.217 108.152 87.904 117.226 78.8262C126.298 69.7483 138.603 64.6479 151.434 64.6479Z" fill="#644AFF"/>
<path d="M487.737 143.78H786.202C791.319 143.78 796.239 145.815 799.854 149.437C803.48 153.061 805.515 157.975 805.515 163.099V310.721C805.515 315.844 803.48 320.758 799.854 324.381C796.239 328.004 791.319 330.039 786.202 330.039H487.737C482.617 330.039 477.706 328.004 474.085 324.381C470.464 320.758 468.43 315.844 468.43 310.721V163.099C468.43 160.561 468.929 158.05 469.899 155.705C470.87 153.362 472.292 151.231 474.085 149.438C475.878 147.644 478.007 146.221 480.349 145.25C482.691 144.28 485.202 143.78 487.737 143.78Z" stroke="#5661AE" stroke-miterlimit="10" stroke-dasharray="11.93 11.93"/>
<path d="M706.089 357.344H407.623C396.96 357.344 388.316 365.993 388.316 376.663V524.285C388.316 534.954 396.96 543.603 407.623 543.603H706.089C716.752 543.603 725.397 534.954 725.397 524.285V376.663C725.397 365.993 716.752 357.344 706.089 357.344Z" fill="white"/>
<path d="M352.151 357.344H143.593C134.573 357.344 127.26 364.66 127.26 373.687V527.261C127.26 536.287 134.573 543.603 143.593 543.603H352.151C361.171 543.603 368.484 536.287 368.484 527.261V373.687C368.484 364.66 361.171 357.344 352.151 357.344Z" fill="white"/>
<path d="M415.783 492.796C415.783 492.796 438.153 490.438 451.603 500.514C469.642 514.025 484.171 524.455 503.348 491.246C524.357 454.862 527.66 442.155 542.987 442.005C562.659 441.813 570.339 494.279 606.612 497.987C642.885 501.695 667.549 495.762 667.549 495.762" stroke="#5661AE" stroke-width="10" stroke-miterlimit="10" stroke-linecap="round"/>
<path d="M415.783 388.083H467.907" stroke="#5661AE" stroke-width="16" stroke-miterlimit="10" stroke-linecap="round"/>
<path d="M415.783 412.424H523.502" stroke="#D4DCF4" stroke-width="16" stroke-miterlimit="10" stroke-linecap="round"/>
<path d="M147.264 99.7988C151.83 99.7988 155.532 96.0951 155.532 91.5275C155.532 86.9589 151.83 83.2552 147.264 83.2552C142.7 83.2552 138.998 86.9589 138.998 91.5275C138.998 96.0951 142.7 99.7988 147.264 99.7988Z" fill="white"/>
<path d="M175.28 99.7988C179.846 99.7988 183.546 96.0951 183.546 91.5275C183.546 86.9589 179.846 83.2552 175.28 83.2552C170.714 83.2552 167.013 86.9589 167.013 91.5275C167.013 96.0951 170.714 99.7988 175.28 99.7988Z" fill="white"/>
<path d="M202.497 99.7988C207.063 99.7988 210.763 96.0951 210.763 91.5275C210.763 86.9589 207.063 83.2552 202.497 83.2552C197.931 83.2552 194.229 86.9589 194.229 91.5275C194.229 96.0951 197.931 99.7988 202.497 99.7988Z" fill="white"/>
<path d="M637.447 270.38C655.921 270.38 670.898 255.395 670.898 236.91C670.898 218.424 655.921 203.439 637.447 203.439C618.973 203.439 603.996 218.424 603.996 236.91C603.996 255.395 618.973 270.38 637.447 270.38Z" fill="#644AFF"/>
<path d="M640.087 221.096C640.087 219.637 638.905 218.453 637.447 218.453C635.989 218.453 634.806 219.637 634.806 221.096V254.846C634.806 256.305 635.989 257.488 637.447 257.488C638.905 257.488 640.087 256.305 640.087 254.846V221.096Z" fill="white"/>
<path d="M654.313 240.613C655.771 240.613 656.953 239.429 656.953 237.97C656.953 236.512 655.771 235.328 654.313 235.328H620.582C619.123 235.328 617.942 236.512 617.942 237.97C617.942 239.429 619.123 240.613 620.582 240.613H654.313Z" fill="white"/>
<path d="M463.647 751.654C753.958 751.654 989.297 745.639 989.297 738.217C989.297 730.796 753.958 724.781 463.647 724.781C173.34 724.781 -62 730.796 -62 738.217C-62 745.639 173.34 751.654 463.647 751.654Z" fill="#F5F8FF"/>
<path d="M924.651 474.32H556.855V734.293H924.651V474.32Z" fill="#644AFF"/>
<path d="M703.785 474.32H556.855V734.293H703.785V474.32Z" fill="url(#paint1_linear_110_29)"/>
<path d="M28.0646 636.581L12.971 733.566L7.22457 732.67C5.28539 732.368 3.54576 731.307 2.38798 729.722C1.2302 728.136 0.749114 726.156 1.0514 724.215L13.868 641.862C14.1703 639.922 15.2302 638.181 16.8148 637.023C18.3993 635.864 20.379 635.383 22.3182 635.685L28.0646 636.581Z" fill="#5661AE"/>
<path d="M75.239 652.903L51.6388 645.838L44.136 678.737L69.9558 686.848L75.239 652.903Z" fill="#BC775C"/>
<path d="M58.9989 683.406L54.6355 682.036L65.3549 649.945L69.3399 651.138L58.9989 683.406Z" fill="#93523E"/>
<path d="M54.6304 646.304C54.6304 646.304 45.384 662.379 50.4794 680.73L18.7135 732.692C15.9525 734.71 11.757 733.513 9.42564 732.272C8.9159 731.997 8.50394 731.57 8.24809 731.05C7.99124 730.531 7.90234 729.944 7.99422 729.372L21.6959 641.336C21.9231 639.866 22.7184 638.545 23.9087 637.656C25.1001 636.767 26.5918 636.381 28.0647 636.581C33.9563 637.38 42.9232 638.672 46.4499 639.579C51.9009 640.978 54.7756 642.962 54.6304 646.304Z" fill="#644AFF"/>
<path d="M44.1459 691.767L39.4821 684.325C39.3112 684.053 39.0771 683.826 38.7986 683.667C38.521 683.507 38.2078 683.418 37.8877 683.407C37.5667 683.397 37.2486 683.466 36.9611 683.608C36.6736 683.749 36.4247 683.96 36.237 684.22C36.0078 684.539 35.8794 684.92 35.8685 685.313C35.8587 685.706 35.9673 686.093 36.1797 686.424L42.0022 695.467L44.1459 691.767Z" fill="white"/>
<path d="M38.8586 699.74L34.2403 692.314C34.0694 692.043 33.8353 691.816 33.5577 691.657C33.2791 691.497 32.966 691.408 32.6459 691.398C32.3248 691.387 32.0067 691.456 31.7193 691.598C31.4318 691.739 31.1829 691.95 30.9962 692.21C30.766 692.529 30.6376 692.909 30.6277 693.303C30.6168 693.696 30.7255 694.084 30.9379 694.414L36.6379 703.373L38.8586 699.74Z" fill="white"/>
<path d="M33.3781 708.702L28.8448 701.331C28.6749 701.059 28.4398 700.834 28.1622 700.673C27.8836 700.513 27.5705 700.424 27.2504 700.414C26.9303 700.404 26.6122 700.473 26.3238 700.614C26.0363 700.755 25.7884 700.966 25.6007 701.226C25.3705 701.545 25.2421 701.927 25.2322 702.319C25.2213 702.713 25.33 703.1 25.5434 703.43L31.2157 712.241L33.3781 708.702Z" fill="white"/>
<path d="M287.518 721.07H385.614V726.889C385.614 727.862 385.422 728.824 385.051 729.722C384.679 730.62 384.134 731.437 383.446 732.124C382.76 732.812 381.944 733.357 381.046 733.729C380.149 734.102 379.187 734.292 378.215 734.292H294.917C292.955 734.292 291.073 733.513 289.685 732.124C288.297 730.736 287.518 728.853 287.518 726.889V721.07Z" fill="#5661AE"/>
<path d="M296.377 671.92L293.031 696.338L326.675 698.695L330.711 671.92H296.377Z" fill="#BC775C"/>
<path d="M330.363 674.233L329.502 679.947L294.953 682.315L296.061 674.233H330.363Z" fill="#93523E"/>
<path d="M293.032 693.309C293.032 693.309 310.329 699.978 327.667 692.116L383.868 715.527C386.286 717.945 385.75 722.278 384.881 724.774C384.689 725.32 384.33 725.793 383.857 726.127C383.383 726.46 382.818 726.638 382.238 726.635H293.193C291.707 726.636 290.28 726.054 289.218 725.013C288.157 723.972 287.547 722.557 287.517 721.07C287.401 715.121 287.297 706.058 287.649 702.432C288.193 696.826 289.709 693.679 293.032 693.309Z" fill="#644AFF"/>
<path d="M339.54 696.68L332.908 702.437C332.666 702.646 332.479 702.913 332.364 703.213C332.249 703.512 332.209 703.835 332.249 704.154C332.287 704.472 332.404 704.777 332.589 705.038C332.772 705.301 333.018 705.515 333.304 705.66C333.654 705.838 334.051 705.906 334.441 705.856C334.83 705.806 335.196 705.639 335.49 705.377L343.524 698.231L339.54 696.68Z" fill="white"/>
<path d="M348.227 700.68L341.605 706.39C341.362 706.599 341.175 706.866 341.061 707.166C340.945 707.465 340.906 707.788 340.945 708.107C340.984 708.425 341.101 708.729 341.285 708.991C341.469 709.254 341.715 709.468 342.001 709.613C342.351 709.791 342.747 709.859 343.137 709.809C343.526 709.758 343.893 709.592 344.186 709.33L352.156 702.317L348.227 700.68Z" fill="white"/>
<path d="M357.921 704.718L351.338 710.336C351.096 710.545 350.91 710.812 350.795 711.111C350.679 711.411 350.64 711.734 350.679 712.052C350.718 712.371 350.835 712.675 351.019 712.938C351.203 713.2 351.449 713.414 351.734 713.559C352.085 713.737 352.481 713.805 352.871 713.755C353.261 713.705 353.626 713.538 353.921 713.276L361.748 706.313L357.921 704.718Z" fill="white"/>
<path d="M238.597 351.886L258.927 311.834C258.927 311.834 246.55 313.452 244.394 305.766C242.236 298.079 302.885 291.201 302.885 291.201C302.885 291.201 298.033 308.193 290.755 310.216L270.741 368.877L238.597 351.886Z" fill="#BC775C"/>
<path d="M241.625 345.919L273.381 361.14L270.741 368.877L239.881 349.357L241.625 345.919Z" fill="#93523E"/>
<path d="M435.248 137.542L142.922 185.424C137.906 186.245 134.505 190.98 135.327 195.999L154.415 312.673C155.236 317.691 159.968 321.095 164.985 320.273L457.31 272.39C462.326 271.569 465.727 266.834 464.906 261.815L445.817 145.141C444.996 140.123 440.264 136.719 435.248 137.542Z" fill="#FEBB94"/>
<path d="M285.868 210.696L404.671 191.236" stroke="white" stroke-width="16.5208" stroke-miterlimit="10" stroke-linecap="round"/>
<path opacity="0.7" d="M294.308 246.79L371.807 234.096" stroke="white" stroke-width="16.5208" stroke-miterlimit="10" stroke-linecap="round"/>
<path d="M214.852 290.306C238.058 290.306 256.87 271.483 256.87 248.265C256.87 225.045 238.058 206.223 214.852 206.223C191.647 206.223 172.835 225.045 172.835 248.265C172.835 271.483 191.647 290.306 214.852 290.306Z" stroke="#EF6A77" stroke-width="16.5208" stroke-miterlimit="10"/>
<path d="M256.317 241.472C257.66 249.678 256.541 258.098 253.101 265.667C249.661 273.237 244.055 279.615 236.992 283.997C229.929 288.378 221.725 290.565 213.42 290.283C205.114 289.999 197.08 287.258 190.332 282.405C183.583 277.552 178.424 270.806 175.508 263.02C172.591 255.234 172.047 246.758 173.945 238.662C175.843 230.567 180.098 223.217 186.171 217.54C192.244 211.865 199.863 208.118 208.064 206.775" stroke="white" stroke-width="16.5208" stroke-miterlimit="10" stroke-linecap="round"/>
<path d="M228.543 563.085L240.669 700.414C240.669 729.851 210.651 733.2 201.041 729.731C187.486 724.837 56.2029 691.396 56.2029 691.396L70.116 648.758L170.876 662.772C170.876 662.772 168.121 634.161 141.101 546.798L228.543 563.085Z" fill="#5661AE"/>
<path d="M150.104 577.058L231.803 600.011L227.21 544.866L141.102 546.798L150.104 577.058Z" fill="#465393"/>
<path d="M227.357 262.208C227.357 262.208 243.537 280.585 248.346 288.023C253.157 295.461 253.329 310.05 243.272 313.768C233.215 317.488 224.988 318.112 210.304 315.369C198.879 313.233 184.067 294.367 188.44 284.742C192.813 275.116 213.146 257.615 227.357 262.208Z" fill="#BC775C"/>
<path d="M230.419 313.618L228.013 344.683L192.812 337.026L208.555 307.712L230.419 313.618Z" fill="#BC775C"/>
<path d="M230.419 316.851H220.848L229.036 331.478" fill="#93523E"/>
<path d="M188.878 335.057L194.127 329.969C194.809 329.308 195.646 328.829 196.561 328.578C197.475 328.326 198.438 328.308 199.362 328.528L228.146 335.348C228.839 335.512 229.477 335.854 230 336.338C230.521 336.824 230.909 337.436 231.124 338.115L233.204 344.683L188.878 335.057Z" fill="url(#paint2_linear_110_29)"/>
<path d="M143.289 492.119L138.137 517.096C132.336 555.199 159.637 580.402 201.364 573.533C238.628 567.399 349.011 524.577 349.011 524.577L344.612 456.804L251.815 472.123C251.815 472.123 168.406 456.661 143.289 492.119Z" fill="#5661AE"/>
<path d="M351.524 516.072C368.104 516.072 381.544 502.624 381.544 486.036C381.544 469.447 368.104 455.999 351.524 455.999C334.946 455.999 321.506 469.447 321.506 486.036C321.506 502.624 334.946 516.072 351.524 516.072Z" fill="#5661AE"/>
<path d="M351.524 516.072C368.104 516.072 381.544 502.624 381.544 486.036C381.544 469.447 368.104 455.999 351.524 455.999C334.946 455.999 321.506 469.447 321.506 486.036C321.506 502.624 334.946 516.072 351.524 516.072Z" fill="#5661AE"/>
<path d="M210.651 731.312C227.23 731.312 240.669 717.864 240.669 701.276C240.669 684.687 227.23 671.239 210.651 671.239C194.073 671.239 180.633 684.687 180.633 701.276C180.633 717.864 194.073 731.312 210.651 731.312Z" fill="#5661AE"/>
<path d="M380.078 494.716L337.878 674.233H287.407L321.505 486.036L380.078 494.716Z" fill="#5661AE"/>
<path d="M251.815 472.124L140.668 506.734L143.289 492.119L251.815 472.124Z" fill="#465393"/>
<path d="M276.757 370.714L287.8 378.753L324.676 318.189C324.676 318.189 319.766 298.352 319.428 294.975L331.427 293.263C331.427 293.263 341.145 274.936 343.916 271.311C346.686 267.686 349.882 268.325 351.587 271.311C351.587 271.311 356.915 272.164 357.767 279.414C357.767 279.414 362.456 280.48 364.373 289.862C364.373 289.862 368.423 294.127 367.57 298.818C366.718 303.509 356.062 321.894 354.357 323.79C353.045 325.336 351.834 326.966 350.735 328.67L315.218 413.827C315.218 413.827 306.54 432.454 286.202 425.389L260.987 413.697C249.413 406.194 276.757 370.714 276.757 370.714Z" fill="#BC775C"/>
<path d="M295.343 427.591C307.066 427.591 316.571 418.082 316.571 406.352C316.571 394.621 307.066 385.111 295.343 385.111C283.619 385.111 274.115 394.621 274.115 406.352C274.115 418.082 283.619 427.591 295.343 427.591Z" fill="#BC775C"/>
<path d="M206.368 277.522C206.368 277.522 227.139 270.522 231.293 255.864C235.447 241.207 226.702 233.55 215.333 240.988C215.333 240.988 207.243 228.081 193.468 237.05C179.694 246.02 182.318 267.24 182.756 271.397C182.756 271.397 167.233 282.335 174.666 299.618C182.1 316.899 202.497 321.056 202.497 321.056C204.749 317.819 206.36 314.18 207.243 310.337C207.243 310.337 196.002 301.805 202.497 293.492C208.992 285.178 216.425 298.523 216.425 298.523C216.425 298.523 222.111 279.709 206.368 277.522Z" fill="#465393"/>
<path d="M188.877 335.057C188.877 335.057 174.458 342.231 171.192 349.957C168.173 357.096 147.179 450.857 140.75 488.601C140.595 489.497 140.665 490.416 140.949 491.278C141.234 492.141 141.727 492.92 142.383 493.547C143.038 494.175 143.839 494.631 144.713 494.877C145.586 495.123 146.507 495.149 147.394 494.956L251.814 472.123C251.814 472.123 246.707 417.211 248.497 401.095C250.286 384.98 233.204 344.683 233.204 344.683L188.877 335.057Z" fill="url(#paint3_linear_110_29)"/>
<path d="M248.127 408.693L221.801 393.039L249.194 438.127L248.127 408.693Z" fill="#96BAFD"/>
<path d="M287.8 378.752L295.466 384.099L302.886 353.977L287.8 378.752Z" fill="#93523E"/>
<path d="M233.205 344.683C233.205 344.683 275.105 367.602 280.192 371.36C280.852 371.847 281.316 372.554 281.5 373.353C281.685 374.152 281.578 374.99 281.199 375.718L261.954 412.689C261.739 413.104 261.441 413.47 261.077 413.766C260.715 414.062 260.296 414.281 259.846 414.408C259.396 414.537 258.925 414.572 258.46 414.511C257.997 414.451 257.55 414.296 257.147 414.057L208.309 385.016C208.309 385.016 205.711 346.36 233.205 344.683Z" fill="url(#paint4_linear_110_29)"/>
<path d="M227.859 289.775C228.863 289.024 228.749 287.173 227.605 285.64C226.46 284.106 224.718 283.471 223.715 284.222C222.71 284.972 222.825 286.823 223.969 288.356C225.113 289.889 226.854 290.525 227.859 289.775Z" fill="#080B09"/>
<path d="M241.628 279.349C242.631 278.599 242.518 276.748 241.374 275.215C240.229 273.681 238.487 273.046 237.484 273.796C236.479 274.547 236.593 276.398 237.737 277.931C238.881 279.464 240.623 280.1 241.628 279.349Z" fill="#080B09"/>
<path d="M236.052 282.205C236.052 282.205 235.814 286.74 238.591 285.546C241.204 284.315 243.437 285.163 241.8 288.604" stroke="#93523E" stroke-width="1.20877" stroke-linecap="round" stroke-linejoin="round"/>
<path d="M242.719 291.841C241.142 292.699 237.988 294.415 235.907 295.593C235.781 295.663 235.676 295.765 235.605 295.889C235.534 296.015 235.498 296.156 235.502 296.299C235.504 296.444 235.548 296.583 235.625 296.705C235.702 296.825 235.812 296.923 235.94 296.986C238.859 298.248 245.11 300.084 243.799 292.43C243.798 292.304 243.763 292.182 243.699 292.074C243.634 291.966 243.542 291.878 243.432 291.818C243.321 291.758 243.198 291.729 243.073 291.733C242.947 291.737 242.826 291.774 242.719 291.841Z" fill="white"/>
<path d="M216.018 285.242L216.31 285.481C216.706 285.866 217.239 286.08 217.791 286.074C218.343 286.068 218.871 285.844 219.259 285.45L225.749 278.508C226.077 278.185 226.272 277.751 226.294 277.292C226.317 276.831 226.167 276.379 225.872 276.025C225.703 275.8 225.487 275.613 225.24 275.478C224.992 275.341 224.719 275.26 224.438 275.238C224.157 275.216 223.874 275.253 223.608 275.348C223.343 275.444 223.1 275.594 222.897 275.79L216.114 282.493C215.924 282.665 215.77 282.873 215.661 283.106C215.552 283.338 215.492 283.59 215.483 283.847C215.473 284.103 215.517 284.359 215.609 284.599C215.7 284.838 215.839 285.057 216.018 285.242Z" fill="#080B09"/>
<path d="M239.605 265.543L230.679 268.894C230.416 268.997 230.178 269.154 229.981 269.355C229.783 269.556 229.63 269.797 229.532 270.062C229.435 270.327 229.394 270.61 229.414 270.892C229.434 271.173 229.513 271.447 229.646 271.696C229.844 272.111 230.19 272.438 230.617 272.61C231.044 272.782 231.52 272.786 231.951 272.624L240.97 269.639C241.489 269.452 241.914 269.067 242.151 268.567C242.387 268.068 242.418 267.494 242.234 266.973L242.139 266.608C242.047 266.368 241.906 266.15 241.728 265.966C241.549 265.782 241.334 265.636 241.098 265.537C240.861 265.437 240.607 265.387 240.35 265.388C240.095 265.389 239.841 265.442 239.605 265.543Z" fill="#080B09"/>
<path d="M924.651 113.055L847.499 173.091H996.805L924.651 113.055Z" fill="#FEBB94"/>
<path d="M680.373 421.381C680.373 421.381 652.08 396.669 629.078 417.669C606.074 438.669 511.035 582.877 511.035 582.877L539.78 602.767L647.586 481.458L666.352 511.68L680.373 421.381Z" fill="#FCBA9F"/>
<path fill-rule="evenodd" clip-rule="evenodd" d="M661.125 697.313C672.975 688.648 685.19 679.716 698.053 676.832C698.342 676.766 698.643 676.764 698.934 676.825C699.225 676.886 699.498 677.011 699.736 677.189C699.974 677.367 700.171 677.594 700.312 677.856C700.453 678.118 700.536 678.407 700.554 678.703L701.964 702.582C701.993 703.074 701.843 703.56 701.542 703.949C701.241 704.34 700.809 704.606 700.326 704.701L612.211 722.128C605.714 723.413 601.547 720.586 599.549 715.565C599.484 715.392 599.47 715.203 599.508 715.023C599.547 714.842 599.638 714.676 599.768 714.544C599.9 714.414 600.066 714.323 600.246 714.284C600.427 714.245 600.616 714.259 600.789 714.324C612.363 718.578 625.142 718.132 636.392 713.079C644.52 709.454 652.731 703.45 661.125 697.313Z" fill="#5661AE"/>
<path fill-rule="evenodd" clip-rule="evenodd" d="M688.165 619.081C688.165 619.081 689.834 656.769 690.713 660.603C691.318 662.698 692.076 664.747 692.981 666.73C694.492 670.332 696.174 674.346 696.328 677.263C684.097 680.523 672.445 689.041 661.126 697.317C652.732 703.453 644.522 709.454 636.393 713.079C625.687 717.887 613.574 718.535 602.416 714.894C600.883 708.379 605.331 701.168 616.55 697.919C636.659 692.096 647.648 688.405 654.66 671.576C659.643 659.616 651.297 617.982 651.297 617.982L688.165 619.081Z" fill="#FFCCB3"/>
<path fill-rule="evenodd" clip-rule="evenodd" d="M655.54 665.213C659.494 664.97 675.205 663.935 690.247 661.967C693.17 661.585 695.779 667.078 694.53 670.572C693.713 673.123 693.102 675.737 692.705 678.387C687.798 680.182 683.089 682.48 678.654 685.245C679.564 679.018 675.768 676.262 670.13 676.545C665.675 676.77 655.614 679.601 650.427 681.138C650.141 681.222 649.838 681.222 649.553 681.14C649.268 681.057 649.012 680.894 648.815 680.67C648.62 680.447 648.491 680.172 648.447 679.877C648.402 679.584 648.442 679.283 648.562 679.012L654.211 666.143C654.326 665.88 654.51 665.655 654.745 665.491C654.98 665.327 655.254 665.231 655.54 665.213Z" fill="white"/>
<path fill-rule="evenodd" clip-rule="evenodd" d="M613.934 717.116C624.17 717.918 630.362 715.255 630.362 715.255L626.242 694.404L610.226 698.347L613.934 717.116Z" fill="white"/>
<path fill-rule="evenodd" clip-rule="evenodd" d="M485.575 622.033C500.211 623.124 515.297 624.25 526.959 630.399C527.223 630.536 527.453 630.73 527.635 630.965C527.817 631.201 527.944 631.472 528.01 631.763C528.077 632.053 528.079 632.353 528.016 632.644C527.954 632.935 527.83 633.209 527.652 633.446L513.251 652.54C512.954 652.933 512.526 653.205 512.043 653.307C511.562 653.408 511.06 653.332 510.631 653.091L432.256 609.191C426.477 605.954 425.137 601.098 426.869 595.979C426.931 595.805 427.042 595.653 427.19 595.54C427.337 595.428 427.513 595.36 427.697 595.345C427.882 595.33 428.067 595.369 428.23 595.457C428.393 595.543 428.527 595.677 428.617 595.839C434.672 606.587 444.69 614.538 456.528 617.99C465.066 620.504 475.207 621.26 485.575 622.033Z" fill="#5661AE"/>
<path fill-rule="evenodd" clip-rule="evenodd" d="M556.855 580.018L531.888 613.281C530.991 615.269 530.241 617.32 529.645 619.419C528.46 623.141 527.139 627.288 525.367 629.608C513.942 624.155 499.551 623.081 485.572 622.036C475.205 621.262 465.067 620.505 456.529 617.991C445.262 614.705 435.621 607.339 429.486 597.329C432.54 591.375 440.6 588.77 451.247 593.576C470.329 602.189 481.087 606.509 497.33 598.245C499.947 596.703 502.294 594.74 504.273 592.436L529.499 555.263L556.855 580.018Z" fill="#FCBA9F"/>
<path fill-rule="evenodd" clip-rule="evenodd" d="M502.124 593.973C505.292 596.353 517.923 605.757 530.649 614.018C533.122 615.624 531.548 621.498 528.334 623.349C526.059 624.76 523.9 626.353 521.881 628.114C516.982 626.296 511.908 624.991 506.74 624.218C511.467 620.069 510.365 615.507 505.887 612.065C502.351 609.346 492.857 604.973 487.911 602.778C487.64 602.657 487.409 602.461 487.246 602.213C487.082 601.965 486.993 601.675 486.988 601.377C486.984 601.08 487.065 600.787 487.221 600.534C487.377 600.282 487.602 600.079 487.871 599.95L500.51 593.818C500.766 593.692 501.054 593.641 501.338 593.668C501.623 593.695 501.895 593.801 502.124 593.973Z" fill="white"/>
<path fill-rule="evenodd" clip-rule="evenodd" d="M436.815 606.494C444.089 613.745 450.527 615.735 450.527 615.735L460.904 597.187L446.155 589.799L436.815 606.494Z" fill="white"/>
<path d="M719.172 403.451L644.572 416.712L659.256 475.798H707.041C707.041 475.798 729.756 426.946 719.172 403.451Z" fill="#FFCCB3"/>
<path d="M654.133 475.22C670.712 475.22 684.152 461.773 684.152 445.184C684.152 428.596 670.712 415.148 654.133 415.148C637.554 415.148 624.114 428.596 624.114 445.184C624.114 461.773 637.554 475.22 654.133 475.22Z" fill="#FFCCB3"/>
<path d="M624.487 449.916L654.525 638.108L689.171 639.555L685.126 453.527L624.487 449.916Z" fill="#FFCCB3"/>
<path d="M671.543 408.627C671.543 408.627 683.04 412.17 687.786 430.932C692.531 449.694 687.353 475.798 687.353 475.798H694.746C694.746 475.798 721.106 444.824 701.713 405.348L671.543 408.627Z" fill="#FF967C"/>
<path d="M744.077 247.694L734.687 252.201C731.086 253.93 727.912 256.433 725.39 259.53C722.868 262.629 721.06 266.246 720.097 270.123L698.871 355.58L651.017 378.475L661.927 395.813L752.406 392.602L744.077 247.694Z" fill="#5661AE"/>
<path d="M730.556 278.457C730.556 278.457 714.079 301.619 722.052 323.679C730.025 345.74 726.77 349.831 724.776 369.375C722.782 388.918 729.293 384.374 729.293 384.374L752.407 373.465C752.407 373.465 762.049 281.017 730.556 278.457Z" fill="#465393"/>
<path d="M827.495 384.832C827.495 384.832 836.633 429.565 824.66 448.259C809.506 471.92 790.974 475.544 777.272 475.798H687.353C687.353 475.798 687.187 419.667 642.889 410.077C642.889 410.077 788.682 369.449 827.495 384.832Z" fill="#1F2D49"/>
<path d="M829.51 397.858L734.215 400.997L735.228 394.337L753.8 392.189H829.372L829.51 397.858Z" fill="#0D1B33"/>
<path d="M706.261 376.898C706.261 376.898 694.603 380.288 689.366 381.829C684.129 383.37 673.775 387.07 673.775 387.07L681.357 397.858L715.716 395.813L706.261 376.898Z" fill="#FFCCB3"/>
<path d="M762.75 239.716C762.75 239.716 743.185 247.463 740.197 249.854C737.209 252.246 734.372 271.764 729.293 281.032C724.214 290.3 716.783 307.405 727.636 323.116C738.489 338.828 737.335 351.304 737.335 351.304L735.025 390.717L825.558 393.473C826.378 393.499 827.198 393.35 827.959 393.034C828.719 392.72 829.411 392.248 829.974 391.648C830.537 391.048 830.972 390.334 831.238 389.555C831.505 388.776 831.604 387.949 831.535 387.127C830.498 375.636 828.749 358.469 828.374 340.17C827.87 315.372 827.495 232.512 827.495 232.512L786.745 231.233C778.546 232.649 762.75 239.716 762.75 239.716Z" fill="#5661AE"/>
<path d="M827.495 276.505C839.636 276.505 849.475 266.657 849.475 254.509C849.475 242.361 839.636 232.512 827.495 232.512C815.354 232.512 805.515 242.361 805.515 254.509C805.515 266.657 815.354 276.505 827.495 276.505Z" fill="#5661AE"/>
<path d="M830.459 378.04C830.459 378.04 828.582 384.916 808.479 392.953C808.479 392.953 761.348 391.928 737.932 392.42C714.517 392.914 740.442 386.733 753.514 380.212C766.583 373.691 828.977 355.58 828.977 355.58L830.459 378.04Z" fill="#465393"/>
<path d="M811.462 266.384C811.462 266.384 797.83 278.819 797.029 288.045C796.219 297.271 794.372 322.996 776.857 325.562C755.381 328.708 749.76 331.77 759.718 334.177C769.666 336.583 792.258 332.683 792.258 343.001C792.258 350.344 801.03 355.837 805.446 351.826C809.852 347.815 844.98 286.842 811.462 266.384Z" fill="#465393"/>
<path d="M849.238 257.728C847.39 266.554 829.806 359.547 829.806 359.547C829.806 359.547 827.495 373.458 813.912 376.898L719.171 400.997L702.501 375.977L788.425 346.575L805.515 254.509C805.515 254.509 851.707 245.952 849.238 257.728Z" fill="#5661AE"/>
<path d="M760.547 222.59L761.446 253.107C761.446 253.107 761.209 258.371 767.591 257.661C773.982 256.952 786.834 252.173 790.381 246.02C793.927 239.866 791.685 237.756 791.685 237.756L772.194 199.74L760.547 222.59Z" fill="#FFCCB3"/>
<path d="M760.547 226.137L768.529 216.668L761.229 245.798L760.547 226.137Z" fill="#FF967C"/>
<path d="M767.66 147.37C767.314 141.548 768.579 135.743 771.325 130.596C775.869 122.384 785.293 111.027 799.618 115.919C813.932 120.811 824.413 131.82 818.999 147.37C813.586 162.921 798.551 167.897 790.885 166.24C783.219 164.583 767.66 147.37 767.66 147.37Z" fill="#080B09"/>
<path d="M763.046 149.532C763.876 148.141 765.101 147.039 766.583 146.376C768.055 145.714 769.695 145.524 771.285 145.834C776.956 146.877 782.912 151.354 787.99 156.724C793.058 162.095 792.89 165.994 790.588 168.371C788.286 170.749 763.046 149.532 763.046 149.532Z" fill="#FEBB94"/>
<path d="M637.447 305.229L673.775 405.932H746.816C746.816 402.857 745.591 399.907 743.421 397.733C741.249 395.559 738.301 394.337 735.228 394.337H682.386L651.017 305.229H637.447Z" fill="white"/>
<path d="M637.447 305.229H539.449L577.348 405.932H673.775L637.447 305.229Z" fill="#D4DCF4"/>
<path d="M606.611 367.468C611.492 367.468 615.449 363.509 615.449 358.625C615.449 353.742 611.492 349.782 606.611 349.782C601.73 349.782 597.774 353.742 597.774 358.625C597.774 363.509 601.73 367.468 606.611 367.468Z" fill="white"/>
<path d="M720.88 185.067C720.88 185.067 723.902 214.276 738.105 227.575C747.369 236.248 755.864 234.027 768.529 216.669C780.136 200.753 781.154 193.013 781.154 193.013L768.884 165.384C768.884 165.384 719.437 158.343 720.88 185.067Z" fill="#FFCCB3"/>
<path d="M725.906 179.349C725.906 179.349 732.894 190.479 745.689 190.659C748.376 192.854 751.567 194.323 754.975 194.923C758.393 195.523 761.9 195.235 765.16 194.086C765.16 194.086 760.063 186.339 765.16 183.624C773.833 179.014 776.817 194.386 772.194 199.739C769.052 203.378 772.371 207.614 774.713 211.402C777.064 215.191 784.631 224.57 784.631 224.57C784.631 224.57 783.91 219.158 787.338 215.191C790.766 211.222 801.869 170.595 781.233 155.65C760.596 140.706 738.871 152.661 734.798 155.65C734.798 155.65 713.111 159.44 713.073 182.007C713.04 201.299 726.763 205.889 726.763 205.889L722.667 190.317C722.667 190.317 725.2 190.587 725.906 179.349Z" fill="#080B09"/>
<path d="M748.969 215.326C748.969 215.326 750.569 220.333 745.136 222.659C741.464 223.866 738.9 220.269 738.9 220.269L748.969 215.326Z" fill="#E56441"/>
<path d="M729.942 207.984C731.073 207.705 731.655 206.128 731.243 204.461C730.833 202.795 729.584 201.671 728.454 201.949C727.324 202.229 726.741 203.806 727.152 205.472C727.563 207.139 728.812 208.263 729.942 207.984Z" fill="#080B09"/>
<path d="M746.697 204.099C747.824 203.82 748.406 202.243 748.001 200.577C747.586 198.91 746.342 197.785 745.206 198.065C744.078 198.344 743.495 199.921 743.907 201.587C744.317 203.253 745.571 204.378 746.697 204.099Z" fill="#080B09"/>
<path d="M723.443 198.999L731.969 197.041C732.111 196.996 732.232 196.9 732.309 196.772C732.386 196.645 732.415 196.493 732.389 196.346C732.294 196.095 732.149 195.866 731.963 195.673C731.778 195.479 731.555 195.325 731.308 195.22C731.061 195.116 730.797 195.062 730.528 195.063C730.26 195.063 729.995 195.119 729.749 195.224L723.063 198.058C722.506 198.196 722.747 199.171 723.443 198.999Z" fill="#080B09"/>
<path d="M752.071 191.363L740.967 194.845C740.893 194.498 740.892 194.14 740.965 193.792C741.037 193.445 741.182 193.117 741.39 192.829C741.596 192.542 741.862 192.3 742.168 192.12C742.474 191.942 742.814 191.829 743.167 191.789L752.042 190.632C752.318 190.564 752.486 191.26 752.071 191.363Z" fill="#080B09"/>
<path d="M735.922 202.412L734.718 211.408L737.893 212.942" stroke="#E56441" stroke-width="0.94666" stroke-linecap="round"/>
<path d="M924.651 113.055V-22" stroke="#5661AE" stroke-miterlimit="10"/>
</g>
<defs>
<linearGradient id="paint0_linear_110_29" x1="449.715" y1="63.4737" x2="527.07" y2="1118.19" gradientUnits="userSpaceOnUse">
<stop stop-color="white"/>
<stop offset="1" stop-color="#94B9FF"/>
</linearGradient>
<linearGradient id="paint1_linear_110_29" x1="626.662" y1="473.702" x2="729.846" y2="1011.58" gradientUnits="userSpaceOnUse">
<stop stop-color="white"/>
<stop offset="1" stop-color="#94B9FF"/>
</linearGradient>
<linearGradient id="paint2_linear_110_29" x1="209.937" y1="328.337" x2="211.331" y2="363.264" gradientUnits="userSpaceOnUse">
<stop stop-color="white"/>
<stop offset="1" stop-color="#94B9FF"/>
</linearGradient>
<linearGradient id="paint3_linear_110_29" x1="193.475" y1="334.677" x2="245.786" y2="669.789" gradientUnits="userSpaceOnUse">
<stop stop-color="white"/>
<stop offset="1" stop-color="#94B9FF"/>
</linearGradient>
<linearGradient id="paint4_linear_110_29" x1="243.09" y1="344.517" x2="258.402" y2="492.788" gradientUnits="userSpaceOnUse">
<stop stop-color="white"/>
<stop offset="1" stop-color="#94B9FF"/>
</linearGradient>
<clipPath id="clip0_110_29">
<rect width="962" height="787" fill="white"/>
</clipPath>
</defs>
</svg>
