<svg width="369" height="71" viewBox="0 0 369 71" fill="none" xmlns="http://www.w3.org/2000/svg">
<path d="M6 51.05H84C87.2861 51.05 89.95 53.7139 89.95 57C89.95 60.2861 87.2861 62.95 84 62.95H6C2.71391 62.95 0.05 60.2861 0.05 57C0.05 53.7139 2.71391 51.05 6 51.05Z" fill="#644AFF" stroke="black" stroke-width="0.1"/>
<rect x="253.05" y="0.05" width="91.9" height="12.9" rx="6.45" fill="#4ABEFF" stroke="black" stroke-width="0.1"/>
<path d="M17.2656 29.6406V33.0156H5.29688V29.6406H17.2656ZM6.46875 20.25V43H2.17188V20.25H6.46875ZM20.4531 20.25V43H16.1562V20.25H20.4531ZM43.41 31.0469V32.2188C43.41 33.9375 43.1808 35.4844 42.7225 36.8594C42.2642 38.224 41.6131 39.3854 40.7694 40.3438C39.9256 41.3021 38.9204 42.0365 37.7537 42.5469C36.5871 43.0573 35.2902 43.3125 33.8631 43.3125C32.4569 43.3125 31.1652 43.0573 29.9881 42.5469C28.8215 42.0365 27.811 41.3021 26.9569 40.3438C26.1027 39.3854 25.4412 38.224 24.9725 36.8594C24.5037 35.4844 24.2694 33.9375 24.2694 32.2188V31.0469C24.2694 29.3177 24.5037 27.7708 24.9725 26.4062C25.4412 25.0417 26.0975 23.8802 26.9412 22.9219C27.785 21.9531 28.7902 21.2135 29.9569 20.7031C31.134 20.1927 32.4256 19.9375 33.8319 19.9375C35.259 19.9375 36.5558 20.1927 37.7225 20.7031C38.8892 21.2135 39.8944 21.9531 40.7381 22.9219C41.5923 23.8802 42.2485 25.0417 42.7069 26.4062C43.1756 27.7708 43.41 29.3177 43.41 31.0469ZM39.0662 32.2188V31.0156C39.0662 29.776 38.9517 28.6875 38.7225 27.75C38.4933 26.8021 38.1548 26.0052 37.7069 25.3594C37.259 24.7135 36.7069 24.2292 36.0506 23.9062C35.3944 23.5729 34.6548 23.4062 33.8319 23.4062C32.9985 23.4062 32.259 23.5729 31.6131 23.9062C30.9777 24.2292 30.436 24.7135 29.9881 25.3594C29.5402 26.0052 29.1965 26.8021 28.9569 27.75C28.7277 28.6875 28.6131 29.776 28.6131 31.0156V32.2188C28.6131 33.4479 28.7277 34.5365 28.9569 35.4844C29.1965 36.4323 29.5402 37.2344 29.9881 37.8906C30.4465 38.5365 30.9985 39.026 31.6444 39.3594C32.2902 39.6927 33.0298 39.8594 33.8631 39.8594C34.6965 39.8594 35.436 39.6927 36.0819 39.3594C36.7277 39.026 37.2694 38.5365 37.7069 37.8906C38.1548 37.2344 38.4933 36.4323 38.7225 35.4844C38.9517 34.5365 39.0662 33.4479 39.0662 32.2188ZM61.6481 39.625V43H50.2106V39.625H61.6481ZM51.5075 20.25V43H47.2106V20.25H51.5075ZM79.7612 39.625V43H67.6675V39.625H79.7612ZM68.98 20.25V43H64.6831V20.25H68.98ZM78.1831 29.6406V32.9375H67.6675V29.6406H78.1831ZM79.7144 20.25V23.6406H67.6675V20.25H79.7144ZM82.9056 20.25H91.1712C92.9004 20.25 94.3848 20.5104 95.6244 21.0312C96.864 21.5521 97.8171 22.3229 98.4837 23.3438C99.1504 24.3646 99.4837 25.6198 99.4837 27.1094C99.4837 28.2865 99.2754 29.3073 98.8587 30.1719C98.4421 31.0365 97.8535 31.7604 97.0931 32.3438C96.3431 32.9271 95.4577 33.3854 94.4369 33.7188L93.0931 34.4062H85.7962L85.765 31.0156H91.2181C92.1035 31.0156 92.8379 30.8594 93.4212 30.5469C94.0046 30.2344 94.4421 29.8021 94.7337 29.25C95.0358 28.6979 95.1869 28.0677 95.1869 27.3594C95.1869 26.599 95.041 25.9427 94.7494 25.3906C94.4577 24.8281 94.015 24.3958 93.4212 24.0938C92.8275 23.7917 92.0775 23.6406 91.1712 23.6406H87.2025V43H82.9056V20.25ZM95.7494 43L90.4837 32.8125L95.0306 32.7969L100.359 42.7812V43H95.7494ZM107.988 20.25V43H103.691V20.25H107.988ZM122.085 20.25V43H117.804V20.25H122.085ZM129.147 20.25V23.6406H110.819V20.25H129.147ZM147.245 39.625V43H135.151V39.625H147.245ZM136.464 20.25V43H132.167V20.25H136.464ZM145.667 29.6406V32.9375H135.151V29.6406H145.667ZM147.198 20.25V23.6406H135.151V20.25H147.198ZM176.268 31.2344V40.0938C175.935 40.5208 175.409 40.9844 174.69 41.4844C173.982 41.9844 173.055 42.4167 171.909 42.7812C170.763 43.1354 169.357 43.3125 167.69 43.3125C166.242 43.3125 164.919 43.0729 163.721 42.5938C162.523 42.1042 161.492 41.3906 160.628 40.4531C159.763 39.5156 159.096 38.3698 158.628 37.0156C158.159 35.6615 157.924 34.1146 157.924 32.375V30.875C157.924 29.1354 158.143 27.5885 158.581 26.2344C159.029 24.8802 159.664 23.7344 160.487 22.7969C161.32 21.8594 162.315 21.1458 163.471 20.6562C164.638 20.1667 165.94 19.9219 167.378 19.9219C169.305 19.9219 170.888 20.2396 172.128 20.875C173.378 21.5104 174.336 22.3854 175.003 23.5C175.669 24.6042 176.086 25.875 176.253 27.3125H172.065C171.95 26.5208 171.721 25.8281 171.378 25.2344C171.034 24.6302 170.544 24.1615 169.909 23.8281C169.284 23.4844 168.471 23.3125 167.471 23.3125C166.628 23.3125 165.883 23.4792 165.237 23.8125C164.591 24.1458 164.049 24.6302 163.612 25.2656C163.174 25.901 162.841 26.6875 162.612 27.625C162.393 28.5625 162.284 29.6354 162.284 30.8438V32.375C162.284 33.5938 162.409 34.6771 162.659 35.625C162.909 36.5625 163.268 37.3542 163.737 38C164.216 38.6354 164.805 39.1198 165.503 39.4531C166.211 39.776 167.013 39.9375 167.909 39.9375C168.721 39.9375 169.393 39.8698 169.924 39.7344C170.466 39.5885 170.898 39.4167 171.221 39.2188C171.544 39.0208 171.794 38.8281 171.971 38.6406V34.375H167.456V31.2344H176.268ZM195.569 39.625V43H183.475V39.625H195.569ZM184.788 20.25V43H180.491V20.25H184.788ZM193.991 29.6406V32.9375H183.475V29.6406H193.991ZM195.522 20.25V23.6406H183.475V20.25H195.522ZM216.994 20.25V43H212.682L203.01 27.2188V43H198.713V20.25H203.01L212.713 36.0469V20.25H216.994ZM236.607 39.625V43H224.514V39.625H236.607ZM225.826 20.25V43H221.529V20.25H225.826ZM235.029 29.6406V32.9375H224.514V29.6406H235.029ZM236.561 20.25V23.6406H224.514V20.25H236.561ZM239.752 20.25H248.018C249.747 20.25 251.231 20.5104 252.471 21.0312C253.71 21.5521 254.663 22.3229 255.33 23.3438C255.997 24.3646 256.33 25.6198 256.33 27.1094C256.33 28.2865 256.122 29.3073 255.705 30.1719C255.288 31.0365 254.7 31.7604 253.939 32.3438C253.189 32.9271 252.304 33.3854 251.283 33.7188L249.939 34.4062H242.643L242.611 31.0156H248.064C248.95 31.0156 249.684 30.8594 250.268 30.5469C250.851 30.2344 251.288 29.8021 251.58 29.25C251.882 28.6979 252.033 28.0677 252.033 27.3594C252.033 26.599 251.887 25.9427 251.596 25.3906C251.304 24.8281 250.861 24.3958 250.268 24.0938C249.674 23.7917 248.924 23.6406 248.018 23.6406H244.049V43H239.752V20.25ZM252.596 43L247.33 32.8125L251.877 32.7969L257.205 42.7812V43H252.596ZM269.302 23.7031L262.818 43H258.271L266.771 20.25H269.677L269.302 23.7031ZM274.724 43L268.209 23.7031L267.818 20.25H270.74L279.287 43H274.724ZM274.427 34.5469V37.9375H262.224V34.5469H274.427ZM289.587 20.25V43H285.306V20.25H289.587ZM296.65 20.25V23.6406H278.322V20.25H296.65ZM317.654 31.0469V32.2188C317.654 33.9375 317.425 35.4844 316.966 36.8594C316.508 38.224 315.857 39.3854 315.013 40.3438C314.169 41.3021 313.164 42.0365 311.997 42.5469C310.831 43.0573 309.534 43.3125 308.107 43.3125C306.701 43.3125 305.409 43.0573 304.232 42.5469C303.065 42.0365 302.055 41.3021 301.201 40.3438C300.346 39.3854 299.685 38.224 299.216 36.8594C298.747 35.4844 298.513 33.9375 298.513 32.2188V31.0469C298.513 29.3177 298.747 27.7708 299.216 26.4062C299.685 25.0417 300.341 23.8802 301.185 22.9219C302.029 21.9531 303.034 21.2135 304.201 20.7031C305.378 20.1927 306.669 19.9375 308.076 19.9375C309.503 19.9375 310.8 20.1927 311.966 20.7031C313.133 21.2135 314.138 21.9531 314.982 22.9219C315.836 23.8802 316.492 25.0417 316.951 26.4062C317.419 27.7708 317.654 29.3177 317.654 31.0469ZM313.31 32.2188V31.0156C313.31 29.776 313.195 28.6875 312.966 27.75C312.737 26.8021 312.399 26.0052 311.951 25.3594C311.503 24.7135 310.951 24.2292 310.294 23.9062C309.638 23.5729 308.899 23.4062 308.076 23.4062C307.242 23.4062 306.503 23.5729 305.857 23.9062C305.221 24.2292 304.68 24.7135 304.232 25.3594C303.784 26.0052 303.44 26.8021 303.201 27.75C302.971 28.6875 302.857 29.776 302.857 31.0156V32.2188C302.857 33.4479 302.971 34.5365 303.201 35.4844C303.44 36.4323 303.784 37.2344 304.232 37.8906C304.69 38.5365 305.242 39.026 305.888 39.3594C306.534 39.6927 307.274 39.8594 308.107 39.8594C308.94 39.8594 309.68 39.6927 310.326 39.3594C310.971 39.026 311.513 38.5365 311.951 37.8906C312.399 37.2344 312.737 36.4323 312.966 35.4844C313.195 34.5365 313.31 33.4479 313.31 32.2188ZM321.454 20.25H329.72C331.449 20.25 332.934 20.5104 334.173 21.0312C335.413 21.5521 336.366 22.3229 337.033 23.3438C337.699 24.3646 338.033 25.6198 338.033 27.1094C338.033 28.2865 337.824 29.3073 337.408 30.1719C336.991 31.0365 336.402 31.7604 335.642 32.3438C334.892 32.9271 334.006 33.3854 332.986 33.7188L331.642 34.4062H324.345L324.314 31.0156H329.767C330.652 31.0156 331.387 30.8594 331.97 30.5469C332.553 30.2344 332.991 29.8021 333.283 29.25C333.585 28.6979 333.736 28.0677 333.736 27.3594C333.736 26.599 333.59 25.9427 333.298 25.3906C333.006 24.8281 332.564 24.3958 331.97 24.0938C331.376 23.7917 330.626 23.6406 329.72 23.6406H325.751V43H321.454V20.25ZM334.298 43L329.033 32.8125L333.579 32.7969L338.908 42.7812V43H334.298Z" fill="black"/>
</svg>
