<svg width="987" height="807" viewBox="0 0 987 807" fill="none" xmlns="http://www.w3.org/2000/svg">
<g clip-path="url(#clip0_112_138)">
<path d="M234.843 0H821.976C830.858 0 839.37 3.52678 845.652 9.8045C851.924 16.0822 855.449 24.5965 855.449 33.4748V70.4342H201.369V33.4748C201.369 24.5965 204.896 16.0822 211.173 9.8045C217.451 3.52678 225.966 0 234.843 0Z" fill="#644AFF"/>
<path d="M201.369 70.4341H855.449V663.338C855.449 671.374 853.871 679.332 850.794 686.756C847.716 694.181 843.217 700.927 837.529 706.609C831.852 712.292 825.102 716.8 817.681 719.875C810.25 722.95 802.294 724.534 794.259 724.534H262.563C254.527 724.534 246.57 722.95 239.146 719.875C231.721 716.8 224.974 712.292 219.293 706.609C213.61 700.927 209.103 694.181 206.027 686.756C202.952 679.332 201.369 671.374 201.369 663.338V70.4341Z" fill="url(#paint0_linear_112_138)"/>
<path d="M628.729 491.015H449.323V578.146H628.729V491.015Z" fill="#FFCCB3"/>
<path d="M448.268 544.732C427.228 565.434 418.95 667.392 420.058 724.534H670.517C670.517 724.534 670.067 599.923 651.078 557.931C633.616 519.314 604.59 576.279 448.268 544.732Z" fill="#1F2D49"/>
<path d="M598.586 94.4843C598.586 94.4843 619.367 70.7799 659.704 67.3313C700.042 63.8826 712.112 99.2137 710.388 120.921C708.663 142.627 677.051 187.46 683.374 206.428C689.696 225.395 659.966 216.2 656.726 178.263C653.486 140.328 641.415 87.4487 608.654 106.416L598.586 94.4843Z" fill="#080B09"/>
<path d="M604.893 83.3885C604.893 83.3885 609.863 80.5086 613.461 87.2268C617.061 93.9449 623.783 107.587 615.263 111.203C606.743 114.82 604.893 83.3885 604.893 83.3885Z" fill="#644AFF"/>
<path d="M489.667 301.859C489.667 301.859 521.89 338.028 511.173 349.629C489.948 373.473 433.494 418.286 414.997 433.12C414.198 433.732 413.287 434.179 412.314 434.436C411.342 434.694 410.328 434.756 409.332 434.62C408.335 434.484 407.375 434.152 406.508 433.642C405.64 433.133 404.882 432.458 404.277 431.654L360.536 374.145C358.826 371.931 358.028 369.146 358.307 366.362C358.586 363.578 359.921 361.007 362.036 359.176L446.763 286.113L489.667 301.859Z" fill="#644AFF"/>
<path d="M438.794 347.841C438.794 347.841 398.637 371.71 395.018 419.668L403.015 429.943C403.015 429.943 408.037 438.695 414.996 433.12C421.956 427.545 454.147 401.759 454.147 401.759L438.794 347.841Z" fill="#0E66AF"/>
<path d="M476.342 366.023C501.39 366.023 521.697 345.717 521.697 320.666C521.697 295.617 501.39 275.31 476.342 275.31C451.293 275.31 430.986 295.617 430.986 320.666C430.986 345.717 451.293 366.023 476.342 366.023Z" fill="#644AFF"/>
<path d="M358.239 462.843L318.602 410.36L356.125 381.229L362.006 376.494L403.121 430.263L395.962 435.412L358.239 462.843Z" fill="#FFCCB3"/>
<path d="M395.959 435.412C385.342 421.197 365.376 393.414 356.123 381.229L362.004 376.494L403.015 429.943L395.959 435.412Z" fill="#FF967C"/>
<path d="M337.817 470.123C356 470.123 370.741 455.382 370.741 437.198C370.741 419.013 356 404.271 337.817 404.271C319.632 404.271 304.891 419.013 304.891 437.198C304.891 455.382 319.632 470.123 337.817 470.123Z" fill="#FFCCB3"/>
<path d="M365.694 419.485C365.694 419.485 259.485 263.505 254.575 250.259C249.797 237.322 224.71 268.452 224.71 268.452L306.911 447.8L365.694 419.485Z" fill="#FFCCB3"/>
<path d="M511.915 201.964L499.147 290.985C499.147 290.985 495.795 302.801 510.671 304.589C525.546 306.378 557.264 302.381 568.591 290.309C579.92 278.237 575.957 272.256 575.957 272.256L551.932 175.633L511.915 201.964Z" fill="#FFCCB3"/>
<path d="M510.139 213.484L541.371 202.452L502.677 259.801L510.139 213.484Z" fill="#FF967C"/>
<path d="M476.578 92.0069C476.578 92.0069 449.783 154.966 463.748 198.117C472.855 226.259 492.687 231.318 538.108 210.229C579.755 190.892 590.572 176.265 590.572 176.265L596.713 106.081C596.713 106.081 503.79 35.8903 476.578 92.0069Z" fill="#FFCCB3"/>
<path d="M498.921 265.39C498.921 265.39 464.597 274.927 457.632 280.5C450.666 286.072 445.599 331.369 435.304 353.743C420.063 386.866 410.195 404.487 435.801 440.887C451.244 462.843 445.993 518.657 445.993 518.657H634.02C628.323 408.909 653.532 279.533 653.532 279.533L568.672 259.979C549.539 263.278 498.921 265.39 498.921 265.39Z" fill="#644AFF"/>
<path d="M492.918 267.161C492.918 267.161 495.456 249.909 503.568 248.695C511.68 247.48 561.248 240.024 568.959 243.271C576.668 246.517 586.002 267.161 586.002 267.161C586.002 267.161 570.176 305.763 547.452 307.792C524.728 309.821 485.616 302.816 489.752 288.463C493.888 274.111 492.918 267.161 492.918 267.161Z" fill="#644AFF"/>
<path d="M477.482 272.405C477.482 272.405 482.965 305.699 512.744 305.174C542.523 304.648 585.797 259.979 585.797 259.979" stroke="white" stroke-width="1.35709" stroke-miterlimit="10"/>
<path d="M612.401 320.666C612.401 320.666 582.81 340.23 591.527 359.972C601.329 382.168 601.244 439.335 573.115 442.918C522.925 449.31 544.731 458.087 567.937 463.696C591.145 469.303 581.643 469.309 581.643 493.352C581.643 510.463 635.415 525.298 634.019 511.472C624.668 418.97 663.534 360.397 612.401 320.666Z" fill="#0E66AF"/>
<path d="M474.19 184.636L499.116 185.869C499.027 186.176 498.891 186.596 498.696 187.09C498.272 188.161 497.569 189.572 496.454 190.939C494.242 193.648 490.38 196.223 483.707 195.548C479.493 194.741 477.098 191.908 475.741 189.226C475.062 187.883 474.65 186.586 474.409 185.626C474.309 185.232 474.238 184.896 474.19 184.636Z" fill="#E56441" stroke="#E56441"/>
<path d="M475.834 143.249C476.875 139.387 475.596 135.684 472.976 134.977C470.356 134.27 467.388 136.828 466.346 140.689C465.305 144.551 466.584 148.254 469.204 148.961C471.824 149.667 474.792 147.11 475.834 143.249Z" fill="#080B09"/>
<path d="M514.393 154.245C515.434 150.383 514.156 146.68 511.535 145.973C508.915 145.267 505.947 147.824 504.904 151.685C503.863 155.547 505.143 159.25 507.763 159.957C510.384 160.664 513.351 158.106 514.393 154.245Z" fill="#080B09"/>
<path d="M466.084 123.303L485.686 128.938C486.027 129.006 486.381 128.947 486.683 128.774C486.985 128.601 487.213 128.324 487.327 127.995C487.416 127.376 487.379 126.746 487.22 126.142C487.059 125.538 486.777 124.973 486.392 124.481C486.007 123.988 485.526 123.579 484.979 123.278C484.431 122.977 483.828 122.789 483.206 122.728L466.37 120.956C465.079 120.608 464.469 122.867 466.084 123.303Z" fill="#080B09"/>
<path d="M533.099 140.059L506.516 134.62C506.757 133.829 507.16 133.096 507.701 132.471C508.241 131.845 508.906 131.339 509.654 130.987C510.401 130.634 511.214 130.442 512.041 130.422C512.868 130.403 513.689 130.556 514.453 130.874L533.857 138.533C534.501 138.706 534.066 140.321 533.099 140.059Z" fill="#080B09"/>
<path d="M487.689 144.353L475.081 161.332L479.828 168.046" stroke="#E56441" stroke-width="2.23881" stroke-linecap="round"/>
<path d="M511.137 329.599C513.579 329.599 515.558 324.132 515.558 317.386C515.558 310.642 513.579 305.173 511.137 305.173C508.696 305.173 506.717 310.642 506.717 317.386C506.717 324.132 508.696 329.599 511.137 329.599Z" fill="white"/>
<path d="M714.886 497.634L649.338 503.005L638.148 455.5L624.668 418.97L693.651 410.714L702.275 451.597L714.886 497.634Z" fill="#FFCCB3"/>
<path d="M695.981 421.754L698.399 433.218L630.468 434.68L625.999 422.57L695.981 421.754Z" fill="#FF967C"/>
<path d="M642.253 368.822C667.302 368.822 687.607 348.516 687.607 323.466C687.607 298.416 667.302 278.109 642.253 278.109C617.203 278.109 596.897 298.416 596.897 323.466C596.897 348.516 617.203 368.822 642.253 368.822Z" fill="#644AFF"/>
<path d="M633.506 302.143C633.506 302.143 681.306 294.296 685.365 309.56C694.134 340.254 704.915 389.53 707.536 413.096C707.625 414.097 707.514 415.107 707.211 416.066C706.908 417.025 706.417 417.915 705.769 418.683C705.12 419.452 704.325 420.085 703.431 420.544C702.537 421.004 701.561 421.283 700.557 421.364L628.568 427.509C625.781 427.767 623.003 426.95 620.801 425.223C618.599 423.496 617.142 420.992 616.729 418.226L597.232 329.944L633.506 302.143Z" fill="#644AFF"/>
<path d="M493.284 86.022C493.284 86.022 494.98 116.603 520.886 131.422C520.886 131.422 528.462 154.878 556.735 160.394C556.735 160.394 555.065 138.836 568.54 139.064C591.423 139.452 580.168 174.163 564.697 179.858C554.183 183.728 547.851 197.464 563.458 228.769C599.294 215.987 624.497 164.365 614.616 107.094C606.704 61.2298 549.846 46.2528 538.164 47.7468C538.164 47.7468 489.651 30.9865 464.106 76.9528C442.269 116.247 462.663 139.698 462.663 139.698L474.301 104.726C474.301 104.726 479.162 108.14 493.284 86.022Z" fill="#080B09"/>
<path d="M715.128 610.958H541.515C538.157 610.958 534.915 609.732 532.396 607.51C529.879 605.288 528.258 602.223 527.841 598.89L511.817 470.995C511.573 469.056 511.746 467.087 512.322 465.22C512.898 463.352 513.865 461.628 515.158 460.162C516.452 458.697 518.041 457.524 519.823 456.72C521.604 455.916 523.537 455.5 525.49 455.5H731.153C733.107 455.5 735.039 455.916 736.82 456.72C738.602 457.524 740.192 458.697 741.485 460.162C742.778 461.628 743.746 463.352 744.321 465.22C744.898 467.087 745.07 469.056 744.827 470.995L728.802 598.89C728.384 602.223 726.765 605.288 724.247 607.51C721.729 609.732 718.486 610.958 715.128 610.958Z" fill="url(#paint1_linear_112_138)"/>
<path d="M628.729 543.03C635.46 543.03 640.916 537.574 640.916 530.845C640.916 524.114 635.46 518.658 628.729 518.658C622 518.658 616.544 524.114 616.544 530.845C616.544 537.574 622 543.03 628.729 543.03Z" fill="white"/>
<path d="M229.225 278.698L218.764 258.627C218.764 258.627 181.771 237.465 177.484 229.815C173.196 222.163 171.511 200.318 179.1 194.725C179.1 194.725 149.586 172.556 154.611 168.064C159.618 163.247 217.606 206.325 217.606 206.325C217.606 206.325 210.546 174.589 221.274 173.101C224.18 185.402 229.159 197.118 235.997 207.748C247.292 225.212 248.684 240.854 248.684 240.854L261.996 266.404L229.225 278.698Z" fill="#FFCCB3"/>
<path d="M181.089 195.285L198.963 206.55" stroke="#FF967C" stroke-width="2.87188" stroke-linecap="round" stroke-linejoin="round"/>
<path d="M178.424 208.173L193.593 217.602" stroke="#FF967C" stroke-width="2.87188" stroke-linecap="round" stroke-linejoin="round"/>
<path d="M181.371 222.105L191.489 228.5" stroke="#FF967C" stroke-width="2.87188" stroke-linecap="round" stroke-linejoin="round"/>
<path d="M251.009 43.7363C255.714 43.7363 259.528 39.9224 259.528 35.2174C259.528 30.5124 255.714 26.6985 251.009 26.6985C246.304 26.6985 242.49 30.5124 242.49 35.2174C242.49 39.9224 246.304 43.7363 251.009 43.7363Z" fill="white"/>
<path d="M285.415 43.7363C290.12 43.7363 293.933 39.9224 293.933 35.2174C293.933 30.5124 290.12 26.6985 285.415 26.6985C280.71 26.6985 276.896 30.5124 276.896 35.2174C276.896 39.9224 280.71 43.7363 285.415 43.7363Z" fill="white"/>
<path d="M317.744 43.7363C322.449 43.7363 326.263 39.9224 326.263 35.2174C326.263 30.5124 322.449 26.6985 317.744 26.6985C313.039 26.6985 309.225 30.5124 309.225 35.2174C309.225 39.9224 313.039 43.7363 317.744 43.7363Z" fill="white"/>
<path opacity="0.7" d="M61.852 34.1729C96.1012 63.3829 186.424 129.984 301.138 133.166C303.484 133.236 305.709 134.218 307.342 135.904C308.976 137.589 309.887 139.846 309.884 142.193V323.959C309.885 326.278 308.995 328.509 307.397 330.189C305.799 331.869 303.615 332.87 301.299 332.985C266.81 334.701 136.021 334.501 49.3597 241.716C47.8141 240.05 46.959 237.859 46.9659 235.586V41.0566C46.9649 39.3318 47.4577 37.642 48.3868 36.1879C49.3159 34.7349 50.6414 33.5769 52.2074 32.8532C53.7725 32.1286 55.5138 31.8676 57.223 32.1023C58.9322 32.3361 60.5382 33.0539 61.852 34.1729Z" fill="#FEBB94"/>
<path d="M74.845 87.7366C74.845 87.7366 101.872 113.998 138.814 130.312" stroke="white" stroke-width="7.4328" stroke-miterlimit="10" stroke-linecap="round"/>
<path opacity="0.4" d="M74.845 119.576C74.845 119.576 112.459 154.661 161.389 167.689" stroke="white" stroke-width="7.4328" stroke-miterlimit="10" stroke-linecap="round"/>
<path d="M69.241 235.997V160.074L95.8587 179.122V256.879L69.241 235.997Z" fill="white"/>
<path d="M114.167 266.675V212.58L140.785 228.499V281.974L114.167 266.675Z" fill="white"/>
<path d="M227.987 309.023V254.928L201.369 251.285V304.76L227.987 309.023Z" fill="white"/>
<path d="M271.708 311.338V216.628H245.09V310.72L271.708 311.338Z" fill="white"/>
<path d="M157.77 290.377V265.645L184.387 273.13V300.017L157.77 290.377Z" fill="white"/>
<g opacity="0.7">
<path d="M128.515 410.815C162.765 435.964 253.087 501.593 367.801 491.17C368.916 491.039 370.048 491.15 371.117 491.494C372.187 491.839 373.169 492.41 373.999 493.167C374.829 493.925 375.486 494.852 375.926 495.887C376.365 496.921 376.577 498.037 376.548 499.16V680.928C376.489 683.333 375.604 685.645 374.04 687.474C372.477 689.304 370.33 690.538 367.963 690.971C333.472 696.777 190.025 693.91 116.022 619.841C115.257 619.073 114.651 618.161 114.24 617.157C113.829 616.154 113.622 615.079 113.629 613.995V419.465C113.629 411.761 122.654 406.511 128.515 410.815Z" fill="#96BAFD"/>
</g>
<path d="M679.777 605.739C679.777 605.739 688.953 606.501 687.571 611.132C686.188 615.762 677.996 613.625 670.516 618.255C663.036 622.886 633.463 626.19 618.692 623.728C603.92 621.266 599.816 605.739 599.816 605.739C599.816 605.739 597.347 591.007 623.439 589.495C649.531 587.982 661.675 596.355 666.213 605.431L679.777 605.739Z" fill="#FFCCB3"/>
<path d="M610.91 591.785L616.545 606.942" stroke="#E56441" stroke-width="2.23881" stroke-linecap="round"/>
<path d="M625.505 589.317L631.14 604.474" stroke="#E56441" stroke-width="2.23881" stroke-linecap="round"/>
<path d="M640.917 590.6L646.552 605.758" stroke="#E56441" stroke-width="2.23881" stroke-linecap="round"/>
<path opacity="0.7" d="M957.456 425.602C909.686 466.347 783.696 559.249 623.682 563.687C620.41 563.785 617.305 565.155 615.026 567.507C612.748 569.859 611.476 573.005 611.481 576.279V829.825C611.479 833.06 612.722 836.17 614.951 838.515C617.181 840.858 620.226 842.255 623.455 842.414C671.566 844.808 853.998 844.53 974.889 715.105C977.041 712.78 978.239 709.724 978.229 706.554V435.205C978.229 432.798 977.538 430.442 976.243 428.413C974.947 426.386 973.097 424.771 970.915 423.761C968.734 422.751 966.299 422.388 963.923 422.714C961.537 423.04 959.297 424.042 957.456 425.602Z" fill="#644AFF"/>
<path d="M939.341 500.319C939.341 500.319 901.641 536.952 850.112 559.708" stroke="white" stroke-width="10.368" stroke-miterlimit="10" stroke-linecap="round"/>
<path opacity="0.4" d="M939.341 544.732C939.341 544.732 886.867 593.671 818.616 611.844" stroke="white" stroke-width="10.368" stroke-miterlimit="10" stroke-linecap="round"/>
<path d="M914.836 345.391H769.002C766.141 345.391 763.308 345.955 760.665 347.049C758.022 348.144 755.62 349.749 753.596 351.772C751.573 353.796 749.968 356.198 748.874 358.841C747.779 361.484 747.215 364.317 747.215 367.179V412.298C747.215 415.159 747.779 417.992 748.874 420.635C749.968 423.28 751.573 425.681 753.596 427.704C755.62 429.728 758.022 431.333 760.665 432.428C763.308 433.522 766.142 434.086 769.002 434.086H820.777L836.048 449.363C837.479 450.794 839.417 451.597 841.443 451.597C843.469 451.597 845.407 450.794 846.838 449.363L862.109 434.086H914.836C920.611 434.086 926.163 431.791 930.243 427.704C934.334 423.618 936.622 418.076 936.622 412.298V367.179C936.622 361.4 934.334 355.859 930.243 351.772C926.163 347.686 920.611 345.391 914.836 345.391Z" fill="white"/>
<path d="M809.081 375.426C807.134 373.627 804.582 372.629 801.933 372.629C799.284 372.629 796.732 373.627 794.784 375.426L792.093 377.913L789.399 375.426C787.453 373.627 784.9 372.629 782.25 372.629C779.6 372.629 777.048 373.627 775.101 375.426C774.073 376.356 773.252 377.492 772.69 378.759C772.128 380.026 771.837 381.396 771.837 382.782C771.837 384.168 772.128 385.54 772.69 386.807C773.252 388.074 774.073 389.208 775.101 390.138L792.093 405.888L809.081 390.346C810.153 389.422 811.019 388.276 811.604 386.99C812.198 385.702 812.5 384.303 812.5 382.887C812.5 381.47 812.198 380.071 811.604 378.783C811.019 377.496 810.153 376.351 809.081 375.426Z" fill="#F4608A"/>
<path d="M828.054 384.629C828.2 382.721 828.94 381.227 830.265 380.148C831.589 379.07 833.313 378.53 835.426 378.53C836.839 378.53 838.056 378.789 839.069 379.308C840.111 379.806 840.89 380.491 841.406 381.361C841.942 382.233 842.215 383.219 842.215 384.318C842.215 385.604 841.844 386.714 841.095 387.647C840.364 388.581 839.41 389.183 838.231 389.453V389.608C839.575 389.94 840.647 390.593 841.435 391.568C842.224 392.543 842.624 393.819 842.624 395.396C842.624 396.578 842.351 397.646 841.805 398.601C841.27 399.535 840.461 400.271 839.38 400.811C838.299 401.349 837.004 401.619 835.495 401.619C833.294 401.619 831.492 401.049 830.08 399.908C828.668 398.746 827.879 397.108 827.713 394.992H830.45C830.596 396.236 831.102 397.253 831.979 398.041C832.846 398.829 834.014 399.223 835.465 399.223C836.916 399.223 838.017 398.85 838.757 398.103C839.527 397.336 839.916 396.35 839.916 395.147C839.916 393.591 839.39 392.471 838.358 391.786C837.316 391.102 835.748 390.76 833.654 390.76H832.943V388.394H833.693C835.592 388.374 837.043 388.062 838.017 387.461C838.991 386.839 839.478 385.884 839.478 384.598C839.478 383.498 839.117 382.617 838.387 381.953C837.686 381.289 836.663 380.957 835.339 380.957C834.053 380.957 833.011 381.289 832.222 381.953C831.433 382.617 830.966 383.509 830.83 384.629H828.054ZM849.83 397.543L846.354 405.914H844.455L846.724 397.543H849.83ZM866.952 381.424H856.034V388.519C856.511 387.855 857.213 387.316 858.148 386.901C859.083 386.465 860.086 386.248 861.167 386.248C862.89 386.248 864.293 386.61 865.364 387.336C866.445 388.042 867.215 388.965 867.672 390.106C868.15 391.226 868.383 392.419 868.383 393.685C868.383 395.179 868.111 396.516 867.546 397.699C866.991 398.881 866.124 399.814 864.965 400.499C863.825 401.184 862.404 401.527 860.699 401.527C858.527 401.527 856.765 400.966 855.411 399.846C854.067 398.726 853.239 397.232 852.957 395.365H855.723C855.995 396.547 856.56 397.47 857.437 398.134C858.303 398.799 859.404 399.13 860.728 399.13C862.374 399.13 863.601 398.643 864.439 397.668C865.267 396.672 865.676 395.365 865.676 393.747C865.676 392.128 865.267 390.884 864.439 390.013C863.601 389.121 862.384 388.675 860.767 388.675C859.667 388.675 858.703 388.944 857.865 389.484C857.057 390.002 856.472 390.718 856.093 391.631H853.424V378.934H866.952V381.424ZM871.811 399.192C874.441 397.077 876.506 395.344 877.996 393.995C879.496 392.627 880.752 391.205 881.765 389.732C882.807 388.238 883.323 386.776 883.323 385.345C883.323 383.997 882.992 382.938 882.33 382.171C881.687 381.383 880.635 380.988 879.184 380.988C877.772 380.988 876.671 381.434 875.882 382.327C875.113 383.197 874.704 384.37 874.636 385.842H871.899C871.987 383.52 872.688 381.725 874.012 380.46C875.347 379.194 877.061 378.561 879.155 378.561C881.288 378.561 882.982 379.153 884.219 380.335C885.485 381.517 886.118 383.146 886.118 385.22C886.118 386.942 885.602 388.623 884.57 390.261C883.547 391.88 882.388 393.312 881.083 394.556C879.778 395.779 878.103 397.211 876.067 398.85H886.771V401.215H871.811V399.192ZM903.892 381.175L895.243 401.464H892.38L901.155 381.455H889.147V379.028H903.892V381.175Z" fill="#644AFF"/>
<path opacity="0.7" d="M59.1932 760.674H169.144C171.301 760.674 173.437 760.249 175.43 759.423C177.423 758.599 179.234 757.388 180.759 755.863C182.285 754.338 183.494 752.527 184.32 750.533C185.146 748.541 185.571 746.404 185.571 744.248V710.231C185.571 708.073 185.146 705.937 184.32 703.944C183.494 701.951 182.285 700.14 180.759 698.615C179.234 697.089 177.423 695.88 175.43 695.054C173.437 694.228 171.301 693.803 169.144 693.803H130.113L118.594 682.285C117.516 681.207 116.053 680.601 114.528 680.601C113.004 680.601 111.541 681.207 110.463 682.285L98.9449 693.803H59.1932C54.8359 693.803 50.6579 695.534 47.5774 698.615C44.497 701.695 42.7664 705.873 42.7664 710.231V744.248C42.7664 748.604 44.497 752.782 47.5774 755.863C50.6579 758.943 54.8359 760.674 59.1932 760.674Z" fill="#644AFF"/>
<path d="M110.991 735.6C112.978 734.005 114.533 732.698 115.66 731.682C116.786 730.649 117.732 729.578 118.499 728.468C119.281 727.341 119.671 726.238 119.671 725.159C119.671 724.143 119.421 723.345 118.92 722.766C118.435 722.172 117.646 721.874 116.551 721.874C115.487 721.874 114.659 722.211 114.065 722.883C113.486 723.541 113.172 724.424 113.126 725.534H111.061C111.124 723.783 111.656 722.43 112.656 721.476C113.658 720.522 114.948 720.045 116.528 720.045C118.138 720.045 119.413 720.49 120.352 721.382C121.306 722.274 121.783 723.502 121.783 725.066C121.783 726.364 121.392 727.63 120.61 728.866C119.844 730.086 118.967 731.166 117.983 732.103C116.997 733.027 115.738 734.106 114.205 735.342H122.276V737.124H110.991V735.6ZM124.227 733.535V731.916L132.462 720.514H135.019V731.682H137.365V733.535H135.019V737.312H132.908V733.535H124.227ZM133.001 722.743L126.69 731.682H133.001V722.743ZM139.451 724.62C139.56 723.18 140.115 722.054 141.117 721.241C142.118 720.428 143.416 720.021 145.011 720.021C146.075 720.021 146.989 720.217 147.756 720.608C148.538 720.983 149.124 721.499 149.516 722.157C149.922 722.813 150.125 723.556 150.125 724.385C150.125 725.355 149.844 726.192 149.281 726.896C148.734 727.599 148.014 728.053 147.123 728.256V728.373C148.139 728.624 148.945 729.116 149.539 729.852C150.133 730.587 150.43 731.548 150.43 732.737C150.43 733.629 150.227 734.434 149.82 735.154C149.413 735.858 148.804 736.413 147.99 736.819C147.177 737.226 146.199 737.43 145.058 737.43C143.4 737.43 142.039 736.999 140.975 736.139C139.912 735.263 139.318 734.028 139.193 732.433H141.257C141.367 733.371 141.75 734.137 142.407 734.731C143.063 735.326 143.94 735.623 145.035 735.623C146.129 735.623 146.958 735.342 147.521 734.778C148.1 734.199 148.39 733.456 148.39 732.549C148.39 731.377 147.998 730.531 147.216 730.015C146.434 729.499 145.254 729.241 143.674 729.241H143.135V727.459H143.698C145.136 727.443 146.223 727.208 146.958 726.755C147.693 726.285 148.061 725.565 148.061 724.596C148.061 723.768 147.787 723.102 147.24 722.602C146.708 722.101 145.941 721.851 144.94 721.851C143.971 721.851 143.189 722.101 142.594 722.602C142 723.102 141.648 723.775 141.538 724.62H139.451ZM162.767 724.385C162.424 722.649 161.352 721.781 159.554 721.781C158.161 721.781 157.121 722.32 156.433 723.399C155.745 724.463 155.409 726.223 155.424 728.678C155.784 727.865 156.379 727.232 157.207 726.778C158.052 726.309 158.991 726.074 160.022 726.074C161.634 726.074 162.916 726.574 163.87 727.576C164.84 728.577 165.325 729.961 165.325 731.728C165.325 732.792 165.114 733.746 164.691 734.591C164.285 735.435 163.659 736.108 162.814 736.608C161.985 737.108 160.976 737.359 159.788 737.359C158.177 737.359 156.918 736.999 156.011 736.28C155.104 735.56 154.47 734.567 154.11 733.3C153.751 732.033 153.571 730.469 153.571 728.608C153.571 722.868 155.573 719.998 159.577 719.998C161.11 719.998 162.314 720.412 163.19 721.241C164.066 722.07 164.582 723.118 164.738 724.385H162.767ZM159.577 727.88C158.904 727.88 158.271 728.022 157.677 728.303C157.082 728.569 156.597 728.983 156.222 729.547C155.863 730.094 155.682 730.766 155.682 731.564C155.682 732.753 156.026 733.722 156.715 734.473C157.403 735.208 158.388 735.576 159.67 735.576C160.765 735.576 161.634 735.239 162.275 734.567C162.932 733.879 163.26 732.957 163.26 731.799C163.26 730.579 162.948 729.625 162.321 728.936C161.696 728.233 160.781 727.88 159.577 727.88Z" fill="white"/>
<path d="M644.425 732.369C644.425 732.369 679.489 725.027 695.522 708.019C716.763 685.483 721.663 658.458 744.936 655.678C781.461 651.317 802.634 780.27 846.976 762.823C891.318 745.376 880.838 649.078 907.222 632.756C925.395 621.512 934.841 654.951 960.289 646.228" stroke="white" stroke-width="10.368" stroke-miterlimit="10" stroke-linecap="round"/>
<path opacity="0.7" d="M299.347 626.555C325.559 634.039 386.88 647.412 467.232 638.187C468.523 638.004 469.839 638.104 471.087 638.48C472.336 638.855 473.488 639.498 474.463 640.363C475.438 641.229 476.213 642.296 476.734 643.492C477.255 644.687 477.51 645.982 477.481 647.286V771.299C477.421 774.035 476.399 776.663 474.593 778.719C472.788 780.775 470.314 782.129 467.608 782.541C438.999 786.452 354.051 794.819 290.748 767.487C289.128 766.77 287.757 765.59 286.807 764.095C285.858 762.6 285.374 760.856 285.415 759.086V637.523C285.415 630.333 292.653 624.643 299.347 626.555Z" fill="url(#paint2_linear_112_138)"/>
<path d="M64.2436 740.745H67.8451C68.5142 740.744 69.155 740.478 69.6273 740.005C70.1006 739.533 70.3665 738.891 70.3675 738.223V721.652C70.3665 720.984 70.1006 720.343 69.6273 719.87C69.155 719.397 68.5142 719.131 67.8451 719.13H64.2436C63.5745 719.131 62.9337 719.397 62.4614 719.87C61.9881 720.343 61.7222 720.984 61.7212 721.652V738.223C61.7222 738.891 61.9881 739.533 62.4614 740.005C62.9337 740.478 63.5745 740.744 64.2436 740.745Z" fill="white"/>
<path d="M80.1384 708.683C78.698 708.683 77.9773 709.404 77.9773 713.006C77.9773 716.43 74.6621 719.185 72.5293 720.605V738.455C74.8365 739.523 79.4537 741.105 86.6226 741.105H88.9279C90.2874 741.106 91.6022 740.627 92.6413 739.751C93.6805 738.876 94.3768 737.66 94.6057 736.321L96.2195 726.955C96.3626 726.127 96.3237 725.279 96.1036 724.468C95.8844 723.657 95.491 722.904 94.9505 722.261C94.409 721.62 93.7341 721.102 92.9734 720.749C92.2119 720.394 91.3821 720.211 90.5426 720.211H83.7408C84.5063 718.388 84.8755 716.424 84.8219 714.448C84.8219 710.124 81.5798 708.684 80.1384 708.684V708.683Z" fill="white"/>
<path d="M184.254 594.723C165.142 587.985 149.65 567.028 149.65 547.916C149.65 528.802 165.142 518.772 184.254 525.511V503.298C153.379 492.411 128.349 508.616 128.349 539.492C128.349 570.368 153.379 604.224 184.254 615.111C213.826 625.538 238.019 611.105 240.011 582.741L218.725 575.235C217.22 592.429 202.367 601.11 184.254 594.723Z" fill="white"/>
<path d="M191.354 498.703V520.915C210.466 527.655 225.959 548.611 225.959 567.724C225.959 568.723 225.907 569.691 225.825 570.64L247.11 578.146C247.198 576.894 247.259 575.626 247.259 574.321C247.259 543.445 222.229 509.589 191.354 498.703Z" fill="#644AFF"/>
<path d="M184.255 594.723V615.111" stroke="white" stroke-width="2.42819" stroke-miterlimit="10"/>
<path d="M149.65 547.915L128.349 540.405" stroke="white" stroke-width="2.42819" stroke-miterlimit="10"/>
<path d="M273.909 551.091L313.433 558.602" stroke="white" stroke-width="10.368" stroke-miterlimit="10" stroke-linecap="round"/>
<path opacity="0.4" d="M273.909 613.021L313.433 620.532" stroke="white" stroke-width="10.368" stroke-miterlimit="10" stroke-linecap="round"/>
<path d="M273.909 582.687L330.693 593.477" stroke="white" stroke-width="10.368" stroke-miterlimit="10" stroke-linecap="round"/>
<g opacity="0.7">
<path d="M986.739 19.7981C952.487 44.9464 889.836 108.363 753.096 129.432C742.628 131.045 738.708 138.494 738.708 146.724V320.103C738.766 322.508 739.652 324.82 741.216 326.649C742.779 328.478 744.925 329.713 747.293 330.145C781.784 335.951 914.612 302.067 994.044 233.849C1001.63 227.333 1001.63 216.403 1001.63 214.132V28.4481C1001.63 20.7444 992.602 15.4941 986.739 19.7981Z" fill="url(#paint3_linear_112_138)"/>
</g>
<path d="M756.787 160.329V267.567C756.786 268.501 756.995 269.422 757.398 270.263C757.801 271.105 758.39 271.845 759.117 272.429C759.846 273.013 760.696 273.426 761.605 273.637C762.514 273.847 763.459 273.851 764.37 273.648C783.903 269.273 836.738 256.624 870.104 240.883C871.175 240.378 872.071 239.581 872.704 238.584C873.328 237.586 873.669 236.43 873.659 235.251V130.819C873.669 129.775 873.406 128.747 872.899 127.83C872.402 126.913 871.682 126.138 870.795 125.574C869.919 125.01 868.916 124.676 867.874 124.603C866.832 124.53 865.79 124.72 864.835 125.156C846.243 133.72 801.561 152.427 762.697 154.11C761.101 154.186 759.595 154.876 758.495 156.034C757.393 157.192 756.782 158.73 756.787 160.329Z" fill="white"/>
<path d="M761.618 250.305V261.584C761.618 262.438 761.815 263.28 762.193 264.046C762.572 264.811 763.122 265.48 763.8 265.998C764.479 266.516 765.269 266.87 766.107 267.033C766.945 267.197 767.81 267.164 768.633 266.939L827.079 250.96C828.004 250.709 828.841 250.224 829.523 249.552C830.205 248.88 830.692 248.045 830.955 247.126C831.218 246.208 831.237 245.238 831.013 244.309C830.789 243.38 830.332 242.525 829.689 241.826L798.349 208.112C797.784 207.507 797.102 207.034 796.333 206.73C795.563 206.426 794.735 206.296 793.912 206.352C793.088 206.407 792.286 206.646 791.566 207.05C790.846 207.455 790.224 208.015 789.748 208.69L762.634 247.103C761.972 248.039 761.618 249.158 761.618 250.305Z" fill="#644AFF"/>
<path opacity="0.6" d="M821.206 223.85L838.746 242.461C839.311 243.06 840.041 243.477 840.84 243.657C841.639 243.839 842.476 243.775 843.246 243.476C848.427 241.452 860.065 236.877 865.957 234.343C866.697 234.023 867.32 233.496 867.768 232.823C868.207 232.15 868.441 231.362 868.441 230.556V213.117C868.441 212.227 868.148 211.361 867.622 210.649L842.963 177.616C842.515 177.023 841.921 176.559 841.239 176.275C840.558 175.99 839.808 175.895 839.077 175.998C838.347 176.102 837.655 176.4 837.071 176.863C836.496 177.325 836.058 177.934 835.795 178.627L820.349 219.564C820.077 220.287 820.008 221.072 820.164 221.83C820.31 222.588 820.68 223.287 821.206 223.85Z" fill="#644AFF"/>
<path d="M805.809 194.789C811.01 194.789 815.227 190.573 815.227 185.373C815.227 180.172 811.01 175.957 805.809 175.957C800.609 175.957 796.392 180.172 796.392 185.373C796.392 190.573 800.609 194.789 805.809 194.789Z" fill="#FEBB94"/>
<path d="M900.812 121.657C924.974 109.403 948.231 95.4319 970.397 79.853" stroke="white" stroke-width="10.368" stroke-miterlimit="10" stroke-linecap="round"/>
<path d="M900.812 162.333C900.812 162.333 916.647 154.614 938.375 141.431" stroke="white" stroke-width="10.368" stroke-miterlimit="10" stroke-linecap="round"/>
<path d="M900.812 202.101C924.974 189.846 948.231 175.876 970.397 160.297" stroke="white" stroke-width="10.368" stroke-miterlimit="10" stroke-linecap="round"/>
<path d="M900.812 246.75C924.974 234.495 948.231 220.525 970.397 204.946" stroke="white" stroke-width="10.368" stroke-miterlimit="10" stroke-linecap="round"/>
<path d="M770.217 304.574C774.967 304.574 778.818 300.724 778.818 295.975C778.818 291.225 774.967 287.374 770.217 287.374C765.468 287.374 761.618 291.225 761.618 295.975C761.618 300.724 765.468 304.574 770.217 304.574Z" fill="white"/>
<path d="M820.086 290.66C824.829 290.66 828.685 286.81 828.685 282.06C828.685 277.31 824.829 273.46 820.086 273.46C815.333 273.46 811.486 277.31 811.486 282.06C811.486 286.81 815.333 290.66 820.086 290.66Z" fill="white"/>
<path d="M865.061 275.297C869.814 275.297 873.661 271.446 873.661 266.696C873.661 261.947 869.814 258.097 865.061 258.097C860.318 258.097 856.462 261.947 856.462 266.696C856.462 271.446 860.318 275.297 865.061 275.297Z" fill="white"/>
</g>
<defs>
<linearGradient id="paint0_linear_112_138" x1="449.542" y1="-744.922" x2="800.187" y2="1429.21" gradientUnits="userSpaceOnUse">
<stop stop-color="white"/>
<stop offset="1" stop-color="#94B9FF"/>
</linearGradient>
<linearGradient id="paint1_linear_112_138" x1="622.515" y1="455.131" x2="646.49" y2="786.877" gradientUnits="userSpaceOnUse">
<stop stop-color="white"/>
<stop offset="1" stop-color="#94B9FF"/>
</linearGradient>
<linearGradient id="paint2_linear_112_138" x1="376.666" y1="625.799" x2="407.677" y2="967.691" gradientUnits="userSpaceOnUse">
<stop stop-color="white"/>
<stop offset="1" stop-color="#94B9FF"/>
</linearGradient>
<linearGradient id="paint3_linear_112_138" x1="838.463" y1="-371.332" x2="1035.56" y2="656.72" gradientUnits="userSpaceOnUse">
<stop stop-color="white"/>
<stop offset="1" stop-color="#94B9FF"/>
</linearGradient>
<clipPath id="clip0_112_138">
<rect width="987" height="807" fill="white"/>
</clipPath>
</defs>
</svg>
