<svg width="1199" height="979" viewBox="0 0 1199 979" fill="none" xmlns="http://www.w3.org/2000/svg">
<g clip-path="url(#clip0_112_312)">
<path d="M657.132 993.176C920.979 993.176 1134.86 779.573 1134.86 516.078C1134.86 252.584 920.979 38.9802 657.132 38.9802C393.284 38.9802 179.393 252.584 179.393 516.078C179.393 779.573 393.284 993.176 657.132 993.176Z" stroke="#D1E8F7" stroke-width="1.91649" stroke-miterlimit="10"/>
<path d="M268.481 252.745C277.774 252.745 285.308 245.222 285.308 235.941C285.308 226.66 277.774 219.137 268.481 219.137C259.189 219.137 251.655 226.66 251.655 235.941C251.655 245.222 259.189 252.745 268.481 252.745Z" fill="#FEBB94"/>
<path d="M1134.86 551.053C1144.16 551.053 1151.7 543.531 1151.7 534.25C1151.7 524.969 1144.16 517.445 1134.86 517.445C1125.58 517.445 1118.04 524.969 1118.04 534.25C1118.04 543.531 1125.58 551.053 1134.86 551.053Z" fill="#5661AE"/>
<path d="M676.726 1009.98C686.019 1009.98 693.552 1002.46 693.552 993.177C693.552 983.896 686.019 976.373 676.726 976.373C667.433 976.373 659.899 983.896 659.899 993.177C659.899 1002.46 667.433 1009.98 676.726 1009.98Z" fill="#644AFF"/>
<path d="M668.2 875.123C865.023 875.123 1024.58 715.781 1024.58 519.221C1024.58 322.66 865.023 163.318 668.2 163.318C471.375 163.318 311.819 322.66 311.819 519.221C311.819 715.781 471.375 875.123 668.2 875.123Z" stroke="#D1E8F7" stroke-width="1.42966" stroke-miterlimit="10"/>
<path d="M1018.47 603.447C1025.4 603.447 1031.02 597.834 1031.02 590.912C1031.02 583.988 1025.4 578.376 1018.47 578.376C1011.54 578.376 1005.92 583.988 1005.92 590.912C1005.92 597.834 1011.54 603.447 1018.47 603.447Z" fill="#FEBB94"/>
<path d="M337.663 665.506C344.596 665.506 350.216 659.894 350.216 652.97C350.216 646.047 344.596 640.435 337.663 640.435C330.732 640.435 325.112 646.047 325.112 652.97C325.112 659.894 330.732 665.506 337.663 665.506Z" fill="#5661AE"/>
<path d="M508.564 213.22C515.497 213.22 521.117 207.607 521.117 200.684C521.117 193.761 515.497 188.149 508.564 188.149C501.632 188.149 496.012 193.761 496.012 200.684C496.012 207.607 501.632 213.22 508.564 213.22Z" fill="#644AFF"/>
<path d="M853.682 913.337H442.118C424.262 913.337 411.179 898.882 412.896 881.05L483.153 151.162C484.869 133.33 500.734 118.875 518.59 118.875H930.154C948.009 118.875 961.092 133.33 959.375 151.162L889.118 881.05C887.403 898.882 871.536 913.337 853.682 913.337Z" fill="#644AFF"/>
<path d="M824.676 913.337H413.112C395.258 913.337 382.175 898.882 383.891 881.05L454.148 151.162C455.865 133.33 471.73 118.875 489.586 118.875H901.149C919.004 118.875 932.087 133.33 930.371 151.162L860.114 881.05C858.397 898.882 842.532 913.337 824.676 913.337Z" fill="url(#paint0_linear_112_312)"/>
<path d="M809.078 889.073H433.38C416.833 889.073 404.707 875.677 406.298 859.152L472.339 173.06C473.931 156.535 488.634 143.139 505.181 143.139H880.879C897.427 143.139 909.552 156.535 907.961 173.06L841.92 859.152C840.329 875.677 825.626 889.073 809.078 889.073Z" fill="white"/>
<path d="M839.209 455.253L436.18 454.896C434.534 454.941 432.897 454.633 431.378 453.996C429.861 453.359 428.496 452.405 427.377 451.199C426.257 449.994 425.408 448.562 424.886 447.003C424.364 445.443 424.182 443.79 424.351 442.153L446.079 201.211C446.471 197.734 448.126 194.521 450.729 192.179C453.33 189.835 456.7 188.524 460.203 188.491L863.231 188.849C864.878 188.805 866.515 189.111 868.033 189.748C869.55 190.387 870.916 191.339 872.035 192.546C873.155 193.752 874.003 195.182 874.525 196.743C875.048 198.302 875.23 199.955 875.061 201.591L853.333 442.535C852.94 446.011 851.286 449.223 848.683 451.567C846.082 453.91 842.712 455.221 839.209 455.253Z" fill="url(#paint1_linear_112_312)"/>
<path d="M826.518 714.871H656.173C654.917 714.897 653.669 714.651 652.516 714.153C651.362 713.656 650.33 712.916 649.487 711.985C648.645 711.054 648.012 709.954 647.633 708.756C647.252 707.561 647.134 706.297 647.285 705.052L667.968 490.172C668.267 487.508 669.524 485.043 671.508 483.237C673.491 481.43 676.063 480.406 678.747 480.353H849.093C850.349 480.327 851.596 480.572 852.749 481.071C853.903 481.568 854.935 482.308 855.778 483.239C856.621 484.17 857.254 485.27 857.634 486.466C858.013 487.664 858.132 488.927 857.98 490.172L837.296 705.052C836.998 707.715 835.741 710.18 833.757 711.986C831.775 713.793 829.202 714.818 826.518 714.871Z" fill="url(#paint2_linear_112_312)"/>
<path d="M785.908 596.333C805.119 578.049 807.209 549.098 790.578 531.672C773.945 514.244 744.89 514.94 725.68 533.224C706.469 551.509 704.378 580.459 721.011 597.886C737.642 615.314 766.698 614.618 785.908 596.333Z" stroke="#EF6A77" stroke-width="11.6898" stroke-miterlimit="10"/>
<path d="M734.2 607.046C718.264 600.174 708.163 583.837 709.997 564.778C712.428 539.518 734.903 519.042 760.197 519.042" stroke="white" stroke-width="11.6898" stroke-miterlimit="10" stroke-linecap="round"/>
<path d="M730.418 646.362H765.464" stroke="white" stroke-width="5.98374" stroke-miterlimit="10" stroke-linecap="round"/>
<path d="M726.602 685.998H761.648" stroke="white" stroke-width="5.98374" stroke-miterlimit="10" stroke-linecap="round"/>
<path opacity="0.4" d="M709.841 665.956H782.267" stroke="white" stroke-width="5.98374" stroke-miterlimit="10" stroke-linecap="round"/>
<path d="M618.196 714.871H447.851C446.595 714.897 445.347 714.651 444.194 714.153C443.041 713.656 442.008 712.916 441.165 711.985C440.323 711.054 439.69 709.954 439.31 708.756C438.929 707.561 438.812 706.297 438.963 705.052L459.646 490.172C459.945 487.508 461.202 485.043 463.185 483.237C465.169 481.43 467.741 480.406 470.425 480.353H640.77C642.027 480.327 643.273 480.572 644.427 481.071C645.58 481.568 646.613 482.308 647.456 483.239C648.299 484.17 648.932 485.27 649.311 486.466C649.691 487.664 649.81 488.927 649.658 490.172L628.974 705.052C628.676 707.715 627.418 710.18 625.435 711.986C623.453 713.793 620.88 714.818 618.196 714.871Z" fill="#FEBB94"/>
<path d="M577.585 596.333C596.795 578.049 598.885 549.098 582.253 531.672C565.622 514.244 536.565 514.94 517.355 533.224C498.145 551.509 496.055 580.459 512.686 597.886C529.318 615.314 558.374 614.618 577.585 596.333Z" stroke="#EF6A77" stroke-width="11.6898" stroke-miterlimit="10"/>
<path d="M593.268 564.778C590.837 590.037 568.362 610.514 543.068 610.514C517.775 610.514 499.241 590.037 501.673 564.778C504.104 539.518 526.579 519.042 551.873 519.042" stroke="white" stroke-width="11.6898" stroke-miterlimit="10" stroke-linecap="round"/>
<path d="M522.096 646.362H557.141" stroke="white" stroke-width="5.98374" stroke-miterlimit="10" stroke-linecap="round"/>
<path d="M518.279 685.998H553.326" stroke="white" stroke-width="5.98374" stroke-miterlimit="10" stroke-linecap="round"/>
<path opacity="0.4" d="M501.52 665.956H573.947" stroke="white" stroke-width="5.98374" stroke-miterlimit="10" stroke-linecap="round"/>
<path d="M812.236 868.563H432.541C431.35 868.586 430.169 868.355 429.076 867.882C427.983 867.41 427.004 866.709 426.205 865.827C425.407 864.945 424.807 863.902 424.446 862.768C424.087 861.634 423.975 860.437 424.117 859.256L435.449 741.55C435.731 739.025 436.923 736.688 438.803 734.976C440.682 733.264 443.12 732.292 445.664 732.242H825.358C826.549 732.218 827.73 732.451 828.824 732.923C829.916 733.395 830.895 734.095 831.694 734.978C832.492 735.86 833.092 736.903 833.453 738.036C833.812 739.171 833.924 740.368 833.782 741.55L822.452 859.256C822.168 861.781 820.977 864.117 819.098 865.829C817.218 867.542 814.779 868.513 812.236 868.563Z" fill="url(#paint3_linear_112_312)"/>
<path d="M458.986 841.27L464.342 785.624" stroke="white" stroke-width="11.6898" stroke-miterlimit="10" stroke-linecap="round"/>
<path d="M498.286 802.29L494.534 841.271" stroke="white" stroke-width="11.6898" stroke-miterlimit="10" stroke-linecap="round"/>
<path d="M532.556 815.603L530.085 841.271" stroke="white" stroke-width="11.6898" stroke-miterlimit="10" stroke-linecap="round"/>
<path d="M572.378 771.164L565.63 841.271" stroke="white" stroke-width="11.6898" stroke-miterlimit="10" stroke-linecap="round"/>
<path d="M603.651 815.603L601.18 841.271" stroke="white" stroke-width="11.6898" stroke-miterlimit="10" stroke-linecap="round"/>
<path d="M643.182 774.26L636.731 841.27" stroke="white" stroke-width="11.6898" stroke-miterlimit="10" stroke-linecap="round"/>
<path d="M674.957 813.447L672.278 841.27" stroke="white" stroke-width="11.6898" stroke-miterlimit="10" stroke-linecap="round"/>
<path d="M709.254 826.448L707.828 841.27" stroke="white" stroke-width="11.6898" stroke-miterlimit="10" stroke-linecap="round"/>
<path d="M748.731 785.624L743.375 841.27" stroke="white" stroke-width="11.6898" stroke-miterlimit="10" stroke-linecap="round"/>
<path d="M786.32 764.437L778.925 841.27" stroke="white" stroke-width="11.6898" stroke-miterlimit="10" stroke-linecap="round"/>
<path d="M468.826 418.305L490.164 451.687C491.127 453.194 491.455 455.019 491.077 456.766C490.697 458.514 489.644 460.04 488.142 461.015L484.694 463.252C478.921 466.998 471.982 468.524 465.168 467.546C458.353 466.567 452.126 463.151 447.644 457.931L419.327 424.954L468.826 418.305Z" fill="#FFCCB3"/>
<path d="M452.541 431.152C452.541 431.152 460.443 458.246 476.316 466.938C480.437 465.344 484.397 463.361 488.14 461.015L470.341 431.152" fill="#FCBA9F"/>
<path d="M87.4822 552.995L171.299 512.882C179.197 509.103 185.874 503.186 190.573 495.806L271.544 368.605C276.584 360.686 283.895 354.464 292.525 350.752L409.147 300.576L384.18 489.134L383.74 496.099C383.74 496.099 352.895 575.881 277.293 604.865L156.419 678.696L87.4822 552.995Z" fill="#FFCCB3"/>
<path d="M178.695 508.456C178.695 508.456 218.344 607.287 277.291 604.864L239.655 627.853C239.655 627.853 111.911 604.188 159.729 518.223L178.695 508.456Z" fill="#FCBA9F"/>
<path d="M391.095 335.47C391.095 335.47 349.861 360.423 352.048 418.305L401.566 399.825L391.095 335.47Z" fill="#FCBA9F"/>
<path d="M494.678 418.305L516.017 451.687C516.98 453.194 517.308 455.019 516.929 456.766C516.551 458.514 515.496 460.04 513.995 461.015L510.546 463.252C504.773 466.998 497.835 468.524 491.02 467.546C484.206 466.567 477.979 463.151 473.496 457.931L445.18 424.954L494.678 418.305Z" fill="#FFCCB3"/>
<path d="M810.14 431.469L407.112 431.111C405.466 431.155 403.829 430.849 402.311 430.211C400.793 429.573 399.429 428.62 398.309 427.415C397.188 426.208 396.34 424.778 395.818 423.218C395.296 421.657 395.113 420.005 395.282 418.369L417.01 177.425C417.404 173.948 419.057 170.735 421.66 168.393C424.262 166.05 427.632 164.739 431.136 164.706L834.163 165.065C835.809 165.02 837.446 165.327 838.965 165.964C840.482 166.601 841.847 167.555 842.966 168.76C844.086 169.967 844.935 171.398 845.457 172.957C845.979 174.517 846.162 176.171 845.994 177.806L824.266 418.749C823.872 422.227 822.217 425.439 819.616 427.782C817.013 430.124 813.643 431.436 810.14 431.469Z" fill="#644AFF"/>
<path d="M433.796 307.648C433.796 307.648 469.973 300.342 479.71 317.295C489.446 334.248 497.842 366.085 523.747 361.982C549.652 357.876 569.481 274.639 594.948 275.398C620.416 276.158 611.437 330.673 639.158 331.434C666.877 332.195 661.947 300.983 680.422 301.853C702.833 302.908 694.479 367.583 723.7 368.345C752.922 369.108 757.691 282.916 801.865 284.428" stroke="white" stroke-width="7.56507" stroke-miterlimit="10" stroke-linecap="round"/>
<path d="M454.374 205.06L525.281 205.123" stroke="white" stroke-width="11.9991" stroke-miterlimit="10" stroke-linecap="round"/>
<path opacity="0.4" d="M451.446 237.52L597.98 237.65" stroke="white" stroke-width="11.9991" stroke-miterlimit="10" stroke-linecap="round"/>
<path d="M314.247 430.274L365.948 407.531L418.82 371.488C432.724 362.011 461.762 357.741 472.216 370.918C482.849 384.321 470.905 410.835 458.009 422.082L409.146 464.693L383.738 496.097L314.247 430.274Z" fill="#FFCCB3"/>
<path d="M419.327 385.176C419.327 385.176 426.306 412.055 444.403 416.705L463.597 400.511C465.543 399.064 467.174 397.236 468.39 395.139C469.606 393.042 470.381 390.719 470.669 388.314C470.957 385.908 470.752 383.468 470.064 381.144C469.377 378.82 468.223 376.66 466.673 374.796C463.965 371.54 460.187 369.35 456.013 368.619C451.838 367.888 447.539 368.663 443.884 370.804L419.327 385.176Z" stroke="#FF967C" stroke-width="3" stroke-linecap="round"/>
<path d="M174.484 509.559C174.484 509.559 164.464 581.118 251.655 622.093C251.655 622.093 189.021 679.471 164.873 689.119C140.727 698.766 49.9992 600.174 82.2685 544.214C91.3182 528.521 174.484 509.559 174.484 509.559Z" fill="#644AFF"/>
<path d="M504.851 434.219C504.851 434.219 470.867 434.911 459.038 441.094L450.5 431.15L502.89 431.151L504.851 434.219Z" fill="#FCBA9F"/>
<path d="M1130.58 431.469H888.943C870.741 431.469 857.292 416.733 858.903 398.556L891.323 32.9124C892.935 14.7362 908.996 0 927.198 0H1168.83C1187.04 0 1200.48 14.7362 1198.87 32.9124L1166.45 398.556C1164.84 416.733 1148.77 431.469 1130.58 431.469Z" fill="#FEBB94"/>
<path d="M1095.98 206.463C1134.25 169.907 1138.1 111.921 1104.6 76.9484C1071.1 41.9754 1012.92 43.2578 974.658 79.8137C936.397 116.37 932.539 174.355 966.044 209.328C999.548 244.303 1057.73 243.019 1095.98 206.463Z" fill="white"/>
<path d="M1040.44 145.985L1101.1 201.232C1101.1 201.232 1114.9 186.419 1119.02 175.834L1040.44 145.985Z" fill="url(#paint4_linear_112_312)"/>
<path d="M1044.48 39.8569L1035.86 137.066C1035.67 138.836 1036 140.624 1036.82 142.21C1037.63 143.794 1038.89 145.106 1040.44 145.984L1122.74 191.741C1122.74 191.741 1171.61 55.5802 1044.48 39.8569Z" fill="#644AFF"/>
<path d="M915.659 302.053H1015.76" stroke="white" stroke-width="12" stroke-miterlimit="10" stroke-linecap="round"/>
<path d="M908.333 384.702H1008.44" stroke="white" stroke-width="12" stroke-miterlimit="10" stroke-linecap="round"/>
<path opacity="0.4" d="M912.04 342.912H1118.91" stroke="white" stroke-width="12" stroke-miterlimit="10" stroke-linecap="round"/>
<path d="M833.409 700.836C833.409 700.836 865.677 692.242 882.851 710.709C882.851 710.709 913.719 705.112 926.269 722.261C926.269 722.261 953.635 723.844 961.561 734.991C968.152 735.9 974.384 738.535 979.623 742.631C984.862 746.725 988.922 752.134 991.387 758.305C998.87 775.918 992.523 877.748 985.085 914.238C983.226 923.364 983.863 932.822 986.93 941.618L1005.85 995.916L874.944 1050.57L843.865 969.614C843.865 969.614 806.035 908.901 800.63 898.106C795.226 887.313 804.386 797.745 785.936 741.791L833.409 700.836Z" fill="#FFCCB3"/>
<path d="M860.748 1013.59L856.972 1003.76C856.972 1003.76 924.898 999.42 986.928 941.618L992.861 958.645C992.861 958.645 985.199 993.816 950.316 1010.39C915.432 1026.97 860.748 1013.59 860.748 1013.59Z" fill="#FCBA9F"/>
<path d="M860.749 1013.59C860.749 1013.59 942.97 1021.07 992.862 958.645C992.862 958.645 1011.28 968.289 1039.57 1038.9C1048.25 1060.59 903.187 1137.8 879.731 1105.71C879.731 1105.71 859.482 1062.93 860.749 1013.59Z" fill="#5661AE"/>
<path d="M793.983 775.569C793.983 775.569 791.147 790.595 777.738 790.596C768.989 790.596 731.068 779.155 705.757 771.2C698.871 769.036 691.483 769.036 684.597 771.2C677.71 773.365 671.655 777.589 667.251 783.301L665.713 785.297C664.948 786.285 664.394 787.419 664.081 788.629C663.768 789.838 663.706 791.098 663.895 792.332C664.084 793.567 664.522 794.751 665.183 795.811C665.843 796.872 666.713 797.788 667.739 798.502C689.167 813.442 747.031 853.99 754.432 861.38C763.54 870.475 814.256 921.465 814.256 921.465L793.983 775.569Z" fill="#FFCCB3"/>
<path d="M790.905 760.513C790.905 760.513 818.313 797.562 814.256 805.673C810.199 813.783 767.698 788.986 767.698 788.986C767.698 788.986 801.994 797.796 790.905 760.513Z" fill="#FCBA9F"/>
<path d="M785.935 741.791L739.815 601.92C738.233 597.122 737.631 592.055 738.047 587.02C738.463 581.987 739.887 577.086 742.234 572.613C744.581 568.138 747.804 564.179 751.711 560.972C755.619 557.765 760.132 555.373 764.982 553.94C768.952 552.768 773.213 553.085 776.966 554.833C780.718 556.581 783.7 559.638 785.351 563.429L850.053 711.961L785.935 741.791Z" fill="#FFCCB3"/>
<path d="M765.936 681.136C767.242 683.28 768.979 685.132 771.036 686.574C773.094 688.017 775.426 689.019 777.89 689.519" stroke="#FF967C" stroke-width="3" stroke-linecap="round"/>
<path d="M782.531 609.532C788.143 607.048 794.333 603.578 796.996 599.527L779.822 558.805C779.454 557.927 778.904 557.138 778.208 556.489C777.511 555.84 776.685 555.346 775.783 555.04C774.882 554.735 773.925 554.624 772.977 554.716C772.029 554.808 771.111 555.099 770.285 555.571C764.174 559.094 756.107 565.449 755.794 574.575L767.409 603.441C767.979 604.851 768.828 606.13 769.904 607.205C770.98 608.28 772.263 609.127 773.674 609.695C775.086 610.265 776.597 610.543 778.12 610.515C779.641 610.487 781.142 610.152 782.531 609.532Z" stroke="#FF967C" stroke-width="3" stroke-linecap="round"/>
<path d="M844.85 700.012L860.75 734.99" stroke="#FF967C" stroke-width="3" stroke-linecap="round"/>
<path d="M883.488 711.425C891.568 722.992 895.898 736.759 895.894 750.865" stroke="#FF967C" stroke-width="3" stroke-linecap="round"/>
<path d="M927.027 722.916C927.027 722.916 935.031 741.247 935.692 755.744" stroke="#FF967C" stroke-width="3" stroke-linecap="round"/>
<path d="M962.681 736.079C965.834 743.814 967.056 752.2 966.242 760.513" stroke="#FF967C" stroke-width="3" stroke-linecap="round"/>
<path d="M701.603 815.603C701.603 815.603 711.074 803.591 707.825 797.566C704.576 791.542 690.125 783.021 681.774 783.949C677.788 784.549 673.943 785.856 670.421 787.812C669.78 788.145 669.239 788.642 668.851 789.251C668.462 789.859 668.238 790.557 668.202 791.278C668.167 791.999 668.32 792.717 668.648 793.36C668.977 794.004 669.467 794.55 670.072 794.946L701.603 815.603Z" stroke="#FF967C" stroke-width="3" stroke-linecap="round"/>
<path d="M538.739 962.064H250.205C249.014 962.087 247.833 961.856 246.739 961.383C245.645 960.911 244.666 960.21 243.869 959.328C243.069 958.446 242.47 957.402 242.11 956.269C241.749 955.135 241.637 953.938 241.781 952.757L253.111 835.049C253.394 832.524 254.586 830.188 256.465 828.476C258.345 826.764 260.782 825.793 263.327 825.743H551.862C553.052 825.719 554.234 825.952 555.326 826.424C556.42 826.895 557.399 827.596 558.198 828.478C558.996 829.361 559.595 830.404 559.956 831.537C560.316 832.672 560.428 833.869 560.285 835.049L548.955 952.757C548.671 955.282 547.479 957.617 545.6 959.329C543.722 961.041 541.283 962.014 538.739 962.064Z" fill="#FEBB94"/>
<path d="M277.293 856.439H455.36" stroke="#EF6A77" stroke-width="11.6898" stroke-miterlimit="10" stroke-linecap="round"/>
<path d="M277.293 856.439H401.033" stroke="white" stroke-width="11.6898" stroke-miterlimit="10" stroke-linecap="round"/>
<path d="M274.629 893.904H452.696" stroke="#EF6A77" stroke-width="11.6898" stroke-miterlimit="10" stroke-linecap="round"/>
<path d="M274.629 893.904H348.609" stroke="white" stroke-width="11.6898" stroke-miterlimit="10" stroke-linecap="round"/>
<path d="M268.805 931.367H446.872" stroke="#EF6A77" stroke-width="11.6898" stroke-miterlimit="10" stroke-linecap="round"/>
<path d="M268.805 931.367H314.047" stroke="white" stroke-width="11.6898" stroke-miterlimit="10" stroke-linecap="round"/>
<path d="M518.393 867.063C524.27 867.063 529.033 862.307 529.033 856.439C529.033 850.57 524.27 845.813 518.393 845.813C512.518 845.813 507.755 850.57 507.755 856.439C507.755 862.307 512.518 867.063 518.393 867.063Z" fill="white"/>
<path d="M514.943 902.89C520.82 902.89 525.583 898.133 525.583 892.265C525.583 886.396 520.82 881.639 514.943 881.639C509.066 881.639 504.303 886.396 504.303 892.265C504.303 898.133 509.066 902.89 514.943 902.89Z" fill="white"/>
<path d="M511.09 941.994C516.965 941.994 521.73 937.236 521.73 931.368C521.73 925.499 516.965 920.742 511.09 920.742C505.213 920.742 500.45 925.499 500.45 931.368C500.45 937.236 505.213 941.994 511.09 941.994Z" fill="white"/>
</g>
<defs>
<linearGradient id="paint0_linear_112_312" x1="593.832" y1="-133.905" x2="970.931" y2="1758.38" gradientUnits="userSpaceOnUse">
<stop stop-color="white"/>
<stop offset="1" stop-color="#94B9FF"/>
</linearGradient>
<linearGradient id="paint1_linear_112_312" x1="638.482" y1="187.857" x2="675.043" y2="757.753" gradientUnits="userSpaceOnUse">
<stop stop-color="white"/>
<stop offset="1" stop-color="#94B9FF"/>
</linearGradient>
<linearGradient id="paint2_linear_112_312" x1="747.384" y1="479.793" x2="807.189" y2="975.663" gradientUnits="userSpaceOnUse">
<stop stop-color="white"/>
<stop offset="1" stop-color="#94B9FF"/>
</linearGradient>
<linearGradient id="paint3_linear_112_312" x1="618.748" y1="731.916" x2="629.282" y2="1023.97" gradientUnits="userSpaceOnUse">
<stop stop-color="white"/>
<stop offset="1" stop-color="#94B9FF"/>
</linearGradient>
<linearGradient id="paint4_linear_112_312" x1="1077.77" y1="145.853" x2="1086.76" y2="263.681" gradientUnits="userSpaceOnUse">
<stop stop-color="white"/>
<stop offset="1" stop-color="#94B9FF"/>
</linearGradient>
<clipPath id="clip0_112_312">
<rect width="1199" height="979" fill="white"/>
</clipPath>
</defs>
</svg>
